<svg width="40" height="40" viewBox="0 0 40 40" fill="none" xmlns="http://www.w3.org/2000/svg"><path d="M36.963 10.874l.999-2.664a.6.6 0 00-.943-.674l-9.615 7.919a1.802 1.802 0 00-.599 1.83l.172.668a.836.836 0 01-.346.906l-.024.015a.82.82 0 01-1.015-.082l-1.428-2.033-.344-1.716a2.241 2.241 0 01.336-1.695c.279-.417.688-.73 1.164-.889a1.605 1.605 0 011.232.088l1.58.79a.601.601 0 00.85-.683l-.385-1.54c-.125-.5-.4-.95-.79-1.29l.48-2.384a1.205 1.205 0 00-.8-1.377l-.804-.27-.007-.002-.075-.021V5a.6.6 0 10-1.2 0v.77a.917.917 0 00-.075.02l-.008.003-.802.27a1.205 1.205 0 00-.8 1.377l.385 1.92c-.3.073-.594.17-.878.29l-.76-1.14.75-2.247a1.802 1.802 0 00-1.04-2.24l-1.572-.63V2.6a.6.6 0 00-1.2 0v.793l-1.573.63a1.802 1.802 0 00-1.04 2.24l.75 2.248-.76 1.14a5.651 5.651 0 00-.878-.29l.386-1.921a1.205 1.205 0 00-.799-1.377l-.804-.27-.007-.003c-.025-.008-.05-.014-.075-.02V5a.6.6 0 00-1.2 0v.77a.917.917 0 00-.075.02l-.008.003-.802.27a1.205 1.205 0 00-.8 1.377l.478 2.384c-.389.339-.665.79-.79 1.29l-.385 1.54a.6.6 0 00.85.682l1.58-.79a1.605 1.605 0 011.233-.087 2.267 2.267 0 011.501 1.703c.058.29.057.59-.002.88l-.343 1.716-1.429 2.033a.82.82 0 01-1.015.083l-.023-.016a.836.836 0 01-.347-.906l.172-.668a1.801 1.801 0 00-.598-1.83L2.982 7.537a.6.6 0 00-.944.674l1 2.664a9.24 9.24 0 002.73 3.847l.276.23-2.77-.347a.6.6 0 00-.573.928 7.264 7.264 0 003.514 2.789l.425.16-2.906.322a.6.6 0 00-.243 1.11l1.052.632a12.508 12.508 0 004.084 1.563 8.76 8.76 0 00-2.326 2.359.6.6 0 00.5.933h.236a7.719 7.719 0 003.363-.768V26a.601.601 0 001.024.424L12.8 25.05l.776.775a.6.6 0 00.923-.091l.535-.802a1.64 1.64 0 01.766-.618v.09c0 .478-.19.936-.526 1.275l-.426.426A4.914 4.914 0 0013.4 29.6a.6.6 0 00.531.596l-.344.689-.75.187-1.53-1.712a1.798 1.798 0 10-.945.744l1.16 1.297-.068.017a.6.6 0 00.292 1.164l.682-.17.527.584a.598.598 0 00.987-.144.6.6 0 00-.096-.66l-.1-.11.4-.1a.6.6 0 00.391-.313l.734-1.469h.53a.6.6 0 00.536-.332 3.39 3.39 0 011.08-1.261l.17.256-1.415 2.476A7.39 7.39 0 0015.2 35a.6.6 0 001.2 0 6.18 6.18 0 01.814-3.065l.82-1.434-.072.18a8.201 8.201 0 00-.344 5.064.599.599 0 001.098.165.598.598 0 00.066-.456 7.008 7.008 0 01.294-4.328l.007-.02.317.476V37.4a.6.6 0 001.2 0v-5.819l.316-.474.008.019a7.008 7.008 0 01.294 4.328.602.602 0 00.67.742.6.6 0 00.494-.45 8.2 8.2 0 00-.344-5.066l-.072-.18.82 1.434A6.19 6.19 0 0123.6 35a.6.6 0 001.2 0 7.391 7.391 0 00-.972-3.66l-1.415-2.477.17-.256c.46.325.83.758 1.08 1.261a.6.6 0 00.537.332h.53l.733 1.468a.6.6 0 00.391.314l1.552.39a2.401 2.401 0 102.794-3.296V28.4a.6.6 0 00-1.2 0v.676a2.406 2.406 0 00-1.779 2.012l-.808-.203-.345-.69a.6.6 0 00.532-.595 4.913 4.913 0 00-1.447-3.496l-.426-.426a1.813 1.813 0 01-.527-1.274v-.09c.313.122.58.338.767.617l.534.802a.6.6 0 00.924.091l.775-.776 1.376 1.376A.6.6 0 0029.6 26v-1.368a7.72 7.72 0 003.363.768h.237a.6.6 0 00.5-.933 8.76 8.76 0 00-2.327-2.358 12.508 12.508 0 004.084-1.564l1.052-.63a.6.6 0 00-.243-1.111l-2.906-.323.425-.16a7.265 7.265 0 003.514-2.788.6.6 0 00-.574-.929l-2.769.346.276-.229a9.24 9.24 0 002.73-3.847zM9.708 28.994a.6.6 0 11.455-.129.598.598 0 01-.455.13zM29.6 32.6a1.2 1.2 0 01-1.038-.6h2.076a1.2 1.2 0 01-1.038.6zm1.038-1.8H30.2v-.438c.181.106.332.257.438.438zM29 30.362v.438h-.438c.106-.181.257-.332.438-.438zM17 17.6h6v6.935a.6.6 0 01-.41.57l-2.59.863-2.59-.864a.6.6 0 01-.41-.569V17.6zm10.089-6.127a2.797 2.797 0 00-2.149-.153 3.473 3.473 0 00-2.3 2.608c-.088.446-.087.904.004 1.35l.224 1.122h-2.176l.305-2.137a4.499 4.499 0 014.454-3.863h.694a1.327 1.327 0 011.288 1.005l.069.274-.413-.206zM24.895 7.2l.8-.268a1.02 1.02 0 01.61 0l.805.272-.414 2.058a2.53 2.53 0 00-.551-.062h-.694c-.053 0-.106 0-.158.002L24.895 7.2zm-6.622-2.064L20 4.447l1.727.69a.6.6 0 01.346.747L21.368 8h-2.735l-.706-2.116a.6.6 0 01.346-.748zm.248 4.064h2.958l.69 1.036A5.715 5.715 0 0020 13.238a5.716 5.716 0 00-2.169-3.002l.691-1.036zm-4.826-2.268c.198-.063.411-.063.61 0l.805.271-.402 1.999a5.974 5.974 0 00-.158-.002h-.695c-.185 0-.37.02-.55.061l-.41-2.06.8-.27zm1.365 4.388a2.796 2.796 0 00-2.149.153l-.412.207.068-.275a1.328 1.328 0 011.288-1.005h.695a4.498 4.498 0 014.453 3.862l.305 2.138h-2.176l.224-1.122a3.433 3.433 0 00-.513-2.595 3.473 3.473 0 00-1.783-1.363zm-1.025 12.945l-.128.193-.683-.682a.6.6 0 00-.848 0l-.776.775V23.6a.6.6 0 00-.933-.5 6.525 6.525 0 01-2.55 1.01 7.554 7.554 0 012.086-1.54l.465-.233a.6.6 0 00-.17-1.129l-1.359-.226a11.307 11.307 0 01-3.483-1.184l3.61-.402a.6.6 0 00.145-1.158l-2.775-1.04a6.079 6.079 0 01-1.979-1.212l3.269.409a.6.6 0 00.458-1.056l-1.847-1.54a8.036 8.036 0 01-2.376-3.346l-.212-.565 7.885 6.493a.598.598 0 01.199.606l-.171.661a2.037 2.037 0 00.842 2.209l.024.015a2.02 2.02 0 002.57-.274.588.588 0 00.06-.073l.442-.628V20.3l-.43.322a2.462 2.462 0 01-2.837.079.6.6 0 10-.666.998 3.662 3.662 0 003.933.08v1.286a2.835 2.835 0 00-1.765 1.2zm10.269 2.687A3.715 3.715 0 0125.353 29h-.8a4.586 4.586 0 00-1.885-1.737.6.6 0 00-.767.204L20 30.318l-1.902-2.851a.6.6 0 00-.767-.204A4.585 4.585 0 0015.445 29h-.798a3.716 3.716 0 011.048-2.047l.426-.427c.16-.16.302-.34.422-.533.149.107.313.192.487.25l2.78.927a.6.6 0 00.379 0l2.78-.927a1.82 1.82 0 00.486-.25c.12.193.261.372.422.534l.426.425zm9.16-13.153l-1.848 1.54a.6.6 0 00.458 1.056l3.269-.409a6.079 6.079 0 01-1.98 1.211l-2.774 1.04a.6.6 0 00.145 1.159l3.61.401a11.31 11.31 0 01-3.484 1.184l-1.358.227a.6.6 0 00-.17 1.128l.465.233c.779.39 1.484.911 2.085 1.541a6.526 6.526 0 01-2.55-1.01.6.6 0 00-.932.5v.951l-.776-.775a.599.599 0 00-.848 0l-.683.682-.128-.192a2.835 2.835 0 00-1.765-1.201v-1.288a3.662 3.662 0 003.933-.078.6.6 0 00-.666-.999 2.462 2.462 0 01-2.838-.079L24.2 20.3v-1.402l.441.628c.019.025.039.05.06.072a2.02 2.02 0 002.572.274l.023-.015a2.036 2.036 0 00.842-2.209c-.058-.22-.117-.452-.17-.66a.598.598 0 01.199-.607l7.884-6.493-.212.565a8.037 8.037 0 01-2.376 3.346z" fill="#5A8F52"/><path d="M18.376 23.424a.6.6 0 00.848 0 1.776 1.776 0 00.483-1.624h.619c.179.247.275.544.274.848V23a.6.6 0 001.2 0v-.352a2.628 2.628 0 00-.568-1.638.6.6 0 01.568-.41.6.6 0 100-1.2 1.803 1.803 0 00-1.697 1.2H19.4v-1.2a.6.6 0 00-1.2 0v1.8c0 .092.022.183.063.266v.002l.221.441a.576.576 0 01-.108.667.6.6 0 000 .848z" fill="#5A8F52"/></svg>