<svg width="40" height="40" viewBox="0 0 40 40" fill="none" xmlns="http://www.w3.org/2000/svg"><path d="M39.934 10.532a1.8 1.8 0 00-2.208-1.272 1.8 1.8 0 00-1.092.84l-.3.522a.6.6 0 00-.815.216l-1.524 2.598-.522-.3a.6.6 0 10-.6 1.038l.522.3-5.1 8.838-1.259 3.366-.6 1.122a1.8 1.8 0 00.096 1.944l-1.35 1.656-.377-.948a1.2 1.2 0 00-2.142-.168l-.216.366-.204-2.4a1.2 1.2 0 00-2.334-.282l-1.475 4.428a.6.6 0 00.377.756.52.52 0 00.186.048.6.6 0 00.57-.408l1.47-4.428.21 2.436a1.2 1.2 0 002.226.516l.222-.366.372.942a1.2 1.2 0 002.051.306l1.398-1.77c.155.04.314.06.474.06a1.8 1.8 0 001.566-.888l.6-1.002 2.285-2.778 5.153-8.946.522.3a.6.6 0 01.222.822l-2.4 4.158a.6.6 0 00.193.846.599.599 0 00.822-.222l2.4-4.158a1.8 1.8 0 00-.66-2.46l-.523-.3 1.5-2.598a.6.6 0 00-.216-.816l.3-.522a1.8 1.8 0 00.18-1.392zm-2.262.168a.6.6 0 01.822-.222.6.6 0 01.222.822l-.3.522-1.044-.6.3-.522zm-8.176 16.752l-1.188-.69.852-2.28 1.89 1.092-1.554 1.878zm-1.8 1.734a.6.6 0 01-.18-.786l.3-.522 1.044.6-.3.516a.6.6 0 01-.864.192zm4.037-4.596l-2.075-1.2 4.799-8.316 2.075 1.2-4.799 8.316zm5.4-9.354l-2.076-1.2 1.2-2.076 2.075 1.2-1.2 2.076zm-23.667 13.65l-2.123 2.118-1.272-1.272a.6.6 0 10-.846.852l1.272 1.272a1.2 1.2 0 00.846.348 1.2 1.2 0 00.852-.348l2.117-2.124a.6.6 0 00-.846-.846z" fill="#343E4D"/><path d="M6.4 30.5a5.1 5.1 0 1010.198 0 .6.6 0 00-1.2 0 3.9 3.9 0 11-1.56-3.12.6.6 0 10.72-.96A5.1 5.1 0 006.4 30.5zM25.596 6.8a.6.6 0 100-1.2H10a.6.6 0 00-.6.6v2.4a.6.6 0 00.6.6h15.597a.6.6 0 100-1.2H10.6V6.8h14.997zm-13.797 3.6a.6.6 0 000 1.2h11.998a.6.6 0 100-1.2H11.799zm15.597 4.2H14.198a.6.6 0 000 1.2h13.198a.6.6 0 100-1.2zm-5.999 4.2a.6.6 0 00-.6-.6H8.8a.6.6 0 000 1.2h11.998a.6.6 0 00.6-.6zm5.999-.6h-4.2a.6.6 0 000 1.2h4.2a.6.6 0 100-1.2zm-12.598 4.2a.6.6 0 100-1.2H8.8a.6.6 0 000 1.2h6zm2.4 0h4.199a.6.6 0 100-1.2h-4.2a.6.6 0 000 1.2z" fill="#343E4D"/><path d="M30.995 29.6a.6.6 0 00-.6.6v6a.6.6 0 01-.6.6H5.8a.6.6 0 01-.6-.6V3.8a.6.6 0 01.6-.6h23.996a.6.6 0 01.6.6v11.268a.6.6 0 001.2 0V3.8a1.8 1.8 0 00-1.8-1.8H5.8A1.8 1.8 0 004 3.8v32.4A1.8 1.8 0 005.8 38h23.996a1.8 1.8 0 001.8-1.8v-6a.6.6 0 00-.6-.6z" fill="#343E4D"/></svg>