<svg width="40" height="40" viewBox="0 0 40 40" fill="none" xmlns="http://www.w3.org/2000/svg"><path d="M24.613 25.421h-2.636a.659.659 0 00-.66.658v2.632c0 .363.296.657.66.657h2.636c.364 0 .66-.294.66-.657v-2.632a.659.659 0 00-.66-.658zm-.659 2.632h-1.318v-1.316h1.318v1.316zm-1.318-6.579a2.634 2.634 0 00-2.637-2.632 2.634 2.634 0 00-2.637 2.632 2.634 2.634 0 002.637 2.631 2.634 2.634 0 002.637-2.631zm-2.637 1.316a1.317 1.317 0 110-2.632c.728 0 1.318.59 1.318 1.316 0 .726-.59 1.316-1.318 1.316z" fill="#5A8F52"/><path d="M39.22 14.357L28.949 7.122a.66.66 0 00-.76 0l-7.641 5.381-.169-.118a.66.66 0 00-.76 0l-.17.118-7.64-5.381a.66.66 0 00-.76 0L.776 14.357a1.835 1.835 0 00-.465 2.522 1.854 1.854 0 002.614.454l1.251-.916v9.004c0 .727.59 1.316 1.319 1.316h7.251v3.947c0 .727.59 1.316 1.319 1.316h11.866c.728 0 1.318-.59 1.318-1.316v-3.947h7.252c.728 0 1.318-.59 1.318-1.316v-9.004l1.253.917c.312.23.69.353 1.078.353.62 0 1.2-.309 1.545-.824a1.828 1.828 0 00-.476-2.505zm-9.333 6.336a.516.516 0 11-.602.84l-8.896-6.514a.66.66 0 00-.78 0l-8.895 6.513a.517.517 0 11-.604-.839L20 13.727l9.888 6.966zM27.25 16.21c0-.727.59-1.316 1.319-1.316.728 0 1.318.589 1.318 1.316a1.317 1.317 0 01-2.637 0zm5.274 5.263v1.316h-1.318v-.82a1.81 1.81 0 00.187-.496h1.131zM11.43 17.526a1.317 1.317 0 01-1.319-1.315c0-.727.59-1.316 1.319-1.316a1.317 1.317 0 110 2.632zm-9.28-1.258a.527.527 0 01-.742-.123.52.52 0 01.131-.713l9.889-6.969 6.877 4.845-.839.592-5.648-4.14a.661.661 0 00-.78 0L2.15 16.268zm3.345-.816l5.933-4.346 4.903 3.592-2.276 1.603c0-.031.01-.06.01-.092a2.634 2.634 0 00-2.363-2.627 2.63 2.63 0 00-1.065 5.127l-1.293.91a1.85 1.85 0 00-.507.54H7.474a.659.659 0 00-.66.658v4.605H5.496v-9.97zm2.637 9.97v-3.948h.471c.048.235.141.458.275.658.411.62 1.16.928 1.89.776v2.513H8.134zm3.955 0v-3.264l.66-.482v3.745h-.66zm4.615 5.262v-3.947h2.637v3.947h-2.637zm9.229 0h-5.274V26.08a.659.659 0 00-.66-.658h-3.954a.659.659 0 00-.66.658v4.605h-1.318V20.71l5.933-4.341 5.933 4.341v9.974zm1.318-5.263v-3.745l.66.482v3.263h-.66zm7.252 0h-5.274V22.91c.217.048.44.053.66.013v.526c0 .363.294.657.659.657h2.636c.364 0 .66-.294.66-.657v-2.632a.659.659 0 00-.66-.658h-2.026a1.836 1.836 0 00-.508-.54l-1.29-.907a2.626 2.626 0 00-1.067-5.116 2.628 2.628 0 00-2.36 2.616c0 .03.008.06.009.09l-2.275-1.603 4.903-3.592 5.933 4.346v9.97zm4.095-9.283a.531.531 0 01-.746.135l-8.893-6.514a.661.661 0 00-.78 0l-5.649 4.14-.839-.592 6.879-4.844 9.888 6.967a.515.515 0 01.14.708z" fill="#5A8F52"/></svg>