<svg width="30" height="30" viewBox="0 0 30 30" fill="none" xmlns="http://www.w3.org/2000/svg"><path d="M15 0C6.728 0 0 6.729 0 15s6.729 15 15 15c8.27 0 15-6.729 15-15S23.27 0 15 0zm0 28.033C7.813 28.033 1.966 22.186 1.966 15 1.967 7.814 7.813 1.967 15 1.967S28.034 7.814 28.034 15c0 7.186-5.847 13.033-13.034 13.033z" fill="#5A8F52"/><path d="M14.722 9.448a1.312 1.312 0 100-2.624 1.312 1.312 0 000 2.624zm2.085 11.521h-.823v-9.377a.984.984 0 00-.983-.983h-1.807a.984.984 0 000 1.967h.823v8.393h-.823a.984.984 0 000 1.967h3.613a.984.984 0 100-1.967z" fill="#5A8F52"/></svg>