<svg width="16" height="12" viewBox="0 0 16 12" fill="none" xmlns="http://www.w3.org/2000/svg"><path d="M14.667 0H1.333C.598 0 0 .598 0 1.333v9.334C0 11.402.598 12 1.333 12h13.334c.735 0 1.333-.598 1.333-1.333V1.333C16 .598 15.402 0 14.667 0zM1.333.667h13.334c.049 0 .092.018.138.028A1793.886 1793.886 0 018.484 6.46.74.74 0 018 6.667a.74.74 0 01-.484-.208A1800.72 1800.72 0 011.195.695c.046-.01.09-.028.138-.028zm-.666 10V1.333c0-.065.02-.124.037-.184.883.809 3.554 3.252 5.286 4.827C4.264 7.458 1.592 9.99.702 10.84c-.016-.056-.035-.112-.035-.173zm14 .666H1.333c-.053 0-.1-.018-.15-.03.92-.877 3.609-3.425 5.304-4.875.222.2.423.383.583.526.274.248.596.38.93.38.334 0 .656-.132.93-.38.16-.143.361-.326.583-.526 1.695 1.45 4.383 3.997 5.304 4.875-.05.012-.097.03-.15.03zm.666-.666c0 .061-.02.117-.035.173-.89-.85-3.562-3.382-5.288-4.864a2725.37 2725.37 0 005.286-4.827c.018.06.037.119.037.184v9.334z" fill="#fff"/></svg>