<svg width="17" height="17" viewBox="0 0 17 17" fill="none" xmlns="http://www.w3.org/2000/svg"><path d="M13.156 10.968a17.561 17.561 0 01-5.844 4.561c-.855.403-1.998.882-3.27.964-.08.004-.155.007-.234.007-.855 0-1.541-.294-2.1-.9a.073.073 0 01-.014-.016c-.2-.24-.426-.455-.663-.684a15.862 15.862 0 01-.484-.479c-.73-.759-.73-1.723.007-2.458l2.063-2.055c.35-.362.769-.554 1.208-.554.44 0 .861.192 1.222.55l1.228 1.225c.114-.065.23-.123.34-.178.137-.068.264-.133.378-.205 1.118-.708 2.134-1.631 3.105-2.817.491-.62.82-1.139 1.05-1.669a20.67 20.67 0 01-.916-.892 31.334 31.334 0 00-.315-.318c-.371-.37-.57-.797-.57-1.231 0-.434.196-.862.57-1.23l1.022-1.02c.12-.12.234-.236.35-.355.227-.233.464-.472.697-.687C12.34.18 12.755 0 13.194 0c.436 0 .855.181 1.222.53l1.283 1.279c.467.465.731 1.029.786 1.682.066.817-.085 1.685-.477 2.735-.6 1.624-1.506 3.132-2.852 4.742zm2.492-7.405a1.805 1.805 0 00-.546-1.163l-1.276-1.272c-.2-.191-.42-.29-.632-.29-.21 0-.422.099-.618.297-.23.212-.446.434-.68.67-.116.12-.236.24-.356.363l-1.023 1.018c-.213.212-.322.428-.322.64 0 .212.11.427.322.64.107.105.213.215.32.32.319.322.617.626.947.917l.017.017c.285.284.24.554.171.759l-.01.027c-.264.633-.631 1.235-1.205 1.953-1.03 1.265-2.114 2.246-3.308 3.001-.148.096-.305.171-.453.247a4.255 4.255 0 00-.378.205l-.037.02a.719.719 0 01-.333.086.729.729 0 01-.512-.233l-1.283-1.278c-.2-.199-.415-.305-.628-.305-.26 0-.474.16-.608.305l-2.069 2.058c-.412.41-.408.854.01 1.289.144.154.295.3.457.454.24.233.49.472.717.742.395.424.865.623 1.472.623.059 0 .12-.004.179-.007 1.125-.072 2.172-.51 2.958-.882a16.684 16.684 0 005.563-4.342c1.28-1.536 2.142-2.965 2.712-4.496.353-.94.487-1.696.432-2.383z" fill="#fff"/></svg>