<svg width="28" height="27" viewBox="0 0 28 27" fill="none" xmlns="http://www.w3.org/2000/svg"><path opacity=".25" d="M6.755 26.992c-1.232 0-2.352-.43-3.36-1.288-.97-.896-1.736-2.053-2.296-3.472-.56-1.419-.84-2.93-.84-4.536 0-2.613.466-5.059 1.4-7.336.933-2.315 2.09-4.275 3.472-5.88C6.512 2.837 7.837 1.661 9.107.952h.056l2.184 1.96v.896c-.933.859-1.81 2.09-2.632 3.696-.784 1.605-1.176 3.584-1.176 5.936 0 1.157.168 2.11.504 2.856.336.747.821 1.53 1.456 2.352.56.747.97 1.419 1.232 2.016.261.56.392 1.27.392 2.128 0 1.195-.43 2.203-1.288 3.024-.822.784-1.848 1.176-3.08 1.176zm16.128 0c-1.232 0-2.352-.43-3.36-1.288-.97-.896-1.736-2.053-2.296-3.472-.56-1.419-.84-2.93-.84-4.536 0-2.613.466-5.059 1.4-7.336.933-2.315 2.09-4.275 3.472-5.88 1.381-1.643 2.706-2.819 3.976-3.528h.056l2.184 1.96v.896c-.934.859-1.81 2.11-2.632 3.752-.822 1.605-1.232 3.565-1.232 5.88 0 1.157.168 2.11.504 2.856.336.747.821 1.53 1.456 2.352.56.747.97 1.419 1.232 2.016.261.56.392 1.27.392 2.128 0 1.195-.41 2.203-1.232 3.024-.822.784-1.848 1.176-3.08 1.176z" fill="#343E4D"/></svg>