<svg width="162" height="18" viewBox="0 0 162 18" fill="none" xmlns="http://www.w3.org/2000/svg"><path d="M109.846 14c-.176-.416-.192-.816-.192-1.36v-1.728c0-1.168-.288-2.016-1.168-2.384.784-.368 1.152-1.12 1.152-2.272v-.88c0-1.728-.784-2.576-2.608-2.576h-2.656V14h1.76V9.44h.608c.8 0 1.152.384 1.152 1.424v1.76c0 .912.064 1.088.16 1.376h1.792zm-2.864-9.6c.624 0 .896.352.896 1.152v1.104c0 .896-.4 1.184-1.056 1.184h-.688V4.4h.848zm5.446.976c0-.8.352-1.104.912-1.104s.912.304.912 1.104v6.048c0 .8-.352 1.104-.912 1.104s-.912-.304-.912-1.104V5.376zm-1.76 5.936c0 1.792.944 2.816 2.672 2.816 1.728 0 2.672-1.024 2.672-2.816V5.488c0-1.792-.944-2.816-2.672-2.816-1.728 0-2.672 1.024-2.672 2.816v5.824zM121.7 14h2.336l1.248-11.2h-1.536l-.912 8.896-.88-8.896h-1.696l-.848 8.832-.944-8.832h-1.712l1.248 11.2h2.416l.64-5.968.64 5.968zm6.732-8.512c0 3.2 3.44 3.632 3.44 5.936 0 .8-.352 1.088-.912 1.088s-.912-.288-.912-1.088v-.8h-1.664v.688c0 1.792.896 2.816 2.624 2.816 1.728 0 2.624-1.024 2.624-2.816 0-3.2-3.44-3.632-3.44-5.936 0-.8.32-1.104.88-1.104s.88.304.88 1.104v.464h1.664v-.352c0-1.792-.88-2.816-2.592-2.816-1.712 0-2.592 1.024-2.592 2.816zm5.696-1.088h1.84V14h1.76V4.4h1.84V2.8h-5.44v1.6zm6.135-1.6v8.528c0 1.792.896 2.816 2.624 2.816 1.728 0 2.624-1.024 2.624-2.816V2.8h-1.664v8.64c0 .8-.352 1.088-.912 1.088s-.912-.288-.912-1.088V2.8h-1.76zm6.455 11.2h2.784c1.76 0 2.624-.976 2.624-2.768V5.568c0-1.792-.864-2.768-2.624-2.768h-2.784V14zm2.752-9.6c.56 0 .896.288.896 1.088v5.824c0 .8-.336 1.088-.896 1.088h-.992v-8h.992zm3.779 9.6h1.76V2.8h-1.76V14zm4.663-8.624c0-.8.352-1.104.912-1.104s.912.304.912 1.104v6.048c0 .8-.352 1.104-.912 1.104s-.912-.304-.912-1.104V5.376zm-1.76 5.936c0 1.792.944 2.816 2.672 2.816 1.728 0 2.672-1.024 2.672-2.816V5.488c0-1.792-.944-2.816-2.672-2.816-1.728 0-2.672 1.024-2.672 2.816v5.824zM3.758 2.704c-1.712 0-2.416 1.216-2.416 2.832v5.728c0 1.616.704 2.832 2.416 2.832s2.416-1.216 2.416-2.832v-1.28H5.47v1.328c0 1.2-.464 2.096-1.696 2.096s-1.696-.896-1.696-2.096V5.488c0-1.2.464-2.112 1.696-2.112s1.696.912 1.696 2.112v.976h.704v-.928c0-1.616-.704-2.832-2.416-2.832zm8.176 8.816l.56 2.48h.736L10.734 2.784H9.662L7.214 14h.672l.56-2.48h3.488zm-1.76-7.888l1.648 7.248H8.558l1.616-7.248zM18.04.72c-.032.64-.528.896-1.12.896-.576 0-1.072-.256-1.088-.896h-.512c.016.864.688 1.36 1.6 1.36.928 0 1.6-.496 1.616-1.36h-.496zm.624 3.376V14h.672V2.8h-.88l-2.032 5.6-1.408 3.984V2.8h-.672V14h.8l3.52-9.904zM23.441 14V3.472h2.288V2.8h-5.312v.672h2.288V14h.736zm5.855-11.2V14h.736V9.392h1.392c1.776 0 2.592-.88 2.592-2.656V5.52c0-1.632-.672-2.72-2.4-2.72h-2.32zm.736 5.92V3.472h1.584c1.248 0 1.664.784 1.664 2v1.312c0 1.36-.56 1.936-1.856 1.936h-1.392zm9.652 2.8l.56 2.48h.736L38.484 2.784h-1.072L34.964 14h.672l.56-2.48h3.488zm-1.76-7.888l1.648 7.248h-3.264l1.616-7.248zm6.553-.928c-1.712 0-2.4 1.2-2.4 2.816v.576h.672v-.608c0-1.216.48-2.112 1.712-2.112s1.696.896 1.696 2.176v.416c0 1.04-.688 1.856-1.68 1.856h-.672v.672h.624c1.088 0 1.728.752 1.728 1.888v.864c0 1.28-.464 2.176-1.696 2.176s-1.696-.912-1.696-2.112v-.976h-.704v.928c0 1.632.704 2.832 2.416 2.832s2.416-1.2 2.416-2.832V10.4c0-1.088-.496-1.984-1.52-2.272.976-.32 1.52-1.2 1.52-2.304v-.288c0-1.632-.704-2.832-2.416-2.832zm3.663.096V14h.736V9.392h1.392c1.776 0 2.592-.88 2.592-2.656V5.52c0-1.632-.672-2.72-2.4-2.72h-2.32zm.736 5.92V3.472h1.584c1.248 0 1.664.784 1.664 2v1.312c0 1.36-.56 1.936-1.856 1.936h-1.392zm9.652 2.8l.56 2.48h.736L57.328 2.784h-1.072L53.808 14h.672l.56-2.48h3.488zm-1.76-7.888l1.648 7.248h-3.264l1.616-7.248zm4.905 3.936V3.472h3.792V2.8h-4.528V14H63.4c1.744 0 2.48-.976 2.48-2.672v-1.264c0-1.792-.88-2.496-2.608-2.496h-1.6zm0 5.76V8.256h1.6c1.248 0 1.872.384 1.872 1.76v1.36c0 1.264-.496 1.952-1.744 1.952h-1.728zm5.403-2.064c0 1.632.752 2.832 2.448 2.832 1.728 0 2.48-1.2 2.48-2.832V5.536c0-1.632-.752-2.832-2.48-2.832-1.696 0-2.448 1.2-2.448 2.832v5.728zm.736-5.776c0-1.216.48-2.112 1.712-2.112 1.248 0 1.744.896 1.744 2.112v5.824c0 1.216-.496 2.112-1.744 2.112-1.232 0-1.712-.896-1.712-2.112V5.488zM76.05 14V3.472h2.288V2.8h-5.312v.672h2.288V14h.736zm7.931-2.48l.56 2.48h.736L82.781 2.784H81.71L79.261 14h.672l.56-2.48h3.488zm-1.76-7.888l1.648 7.248h-3.264l1.616-7.248zm8.393 5.104V14h.752V2.8h-.752v5.264h-3.488V2.8h-.736V14h.736V8.736h3.488z" fill="#fff"/></svg>