<svg width="40" height="40" viewBox="0 0 40 40" fill="none" xmlns="http://www.w3.org/2000/svg"><path d="M30.189 12.688H20a.705.705 0 00-.707.703c0 .388.316.703.707.703h10.189c.39 0 .707-.315.707-.703a.705.705 0 00-.707-.704zm-2.476 3.581a.715.715 0 00-.5-.206.706.706 0 00-.708.703.706.706 0 001.208.497.706.706 0 00.207-.497.706.706 0 00-.207-.497zM20.5 5.23a.715.715 0 00-.5-.206.706.706 0 00-.708.703.706.706 0 001.208.497.706.706 0 00.207-.497.706.706 0 00-.207-.497zm3.737 10.833H20a.705.705 0 00-.707.703c0 .388.316.703.707.703h4.237c.39 0 .707-.315.707-.703a.705.705 0 00-.707-.703zm5.952 4.218H20a.705.705 0 00-.707.703c0 .389.316.703.707.703h10.189c.39 0 .707-.314.707-.703a.705.705 0 00-.707-.703zm-2.476 3.581a.715.715 0 00-.5-.206.706.706 0 00-.708.703.706.706 0 001.208.498.706.706 0 00.207-.498.706.706 0 00-.207-.497zm-3.476-.206H20a.705.705 0 00-.707.703c0 .389.316.703.707.703h4.237c.39 0 .707-.314.707-.703a.705.705 0 00-.707-.703zm5.952 4.219H20a.705.705 0 00-.707.703c0 .388.316.703.707.703h10.189c.39 0 .707-.315.707-.703a.705.705 0 00-.707-.703zm-2.476 3.581a.716.716 0 00-.5-.206.706.706 0 00-.708.703.706.706 0 001.208.497.706.706 0 00.207-.497.706.706 0 00-.207-.497zm-3.476-.206H20a.705.705 0 00-.707.703c0 .388.316.703.707.703h4.237c.39 0 .707-.315.707-.703a.705.705 0 00-.707-.703z" fill="#343E4D"/><path d="M31.55 4.742h-5.404a4.35 4.35 0 00-2.999-1.195h-.62A2.841 2.841 0 0020 2c-1.08 0-2.053.615-2.527 1.547h-.622a4.35 4.35 0 00-2.998 1.195H8.45C6.548 4.742 5 6.28 5 8.171v26.4C5 36.463 6.548 38 8.45 38h23.1c1.902 0 3.45-1.538 3.45-3.428V8.17c0-1.89-1.548-3.429-3.45-3.429zm-14.699.211h1.103a.707.707 0 00.682-.516 1.417 1.417 0 012.728 0 .707.707 0 00.682.516h1.101c1.536 0 2.8 1.178 2.926 2.672H13.925a2.933 2.933 0 012.926-2.672zm16.734 29.619a2.03 2.03 0 01-2.035 2.022H8.45a2.03 2.03 0 01-2.035-2.022V8.17A2.03 2.03 0 018.45 6.149h4.411A4.275 4.275 0 0012.5 7.87v.457c0 .389.317.703.708.703H26.79c.39 0 .708-.314.708-.703V7.87c0-.612-.13-1.194-.362-1.723h4.413a2.03 2.03 0 012.035 2.023v26.4z" fill="#343E4D"/><path d="M15.5 12.518a.71.71 0 00-1 0l-3.026 3.007-.932-.926a.711.711 0 00-1 0 .7.7 0 000 .994l1.432 1.424a.708.708 0 001 0l3.527-3.504a.7.7 0 000-.995zm-1.726 15.357h-3.397a.705.705 0 00-.707.703v3.375c0 .388.317.703.707.703h3.397c.39 0 .707-.315.707-.703v-3.375a.705.705 0 00-.707-.703zm-.708 3.375h-1.981v-1.97h1.981v1.969zm.708-10.969h-3.397a.705.705 0 00-.707.703v3.375c0 .389.317.703.707.703h3.397c.39 0 .707-.314.707-.703v-3.375a.705.705 0 00-.707-.703zm-.708 3.375h-1.981v-1.968h1.981v1.968z" fill="#343E4D"/></svg>