<svg width="40" height="40" viewBox="0 0 40 40" fill="none" xmlns="http://www.w3.org/2000/svg">
<path d="M36.9628 10.8744L37.9618 8.21C38.0082 8.08631 38.0124 7.95078 37.9739 7.82443C37.9354 7.69807 37.8563 7.58796 37.7488 7.51118C37.6413 7.43439 37.5115 7.39523 37.3795 7.39975C37.2474 7.40427 37.1206 7.45224 37.0186 7.5362L27.4038 15.455C27.1413 15.6721 26.9456 15.9592 26.8396 16.283C26.7336 16.6068 26.7216 16.954 26.805 17.2844C26.8589 17.4957 26.9191 17.7292 26.9775 17.9525C27.0211 18.1209 27.0111 18.2986 26.9489 18.4611C26.8867 18.6235 26.7754 18.7625 26.6305 18.8587L26.6069 18.8744C26.4532 18.9769 26.2694 19.0246 26.0853 19.0096C25.9011 18.9946 25.7275 18.9179 25.5924 18.7919L24.1637 16.7586L23.8205 15.0425C23.7615 14.752 23.7608 14.4526 23.8183 14.1618C23.8759 13.871 23.9905 13.5945 24.1556 13.3483C24.4346 12.9313 24.8439 12.6186 25.3196 12.4592C25.5206 12.3916 25.7331 12.3645 25.9446 12.3795C26.1562 12.3945 26.3627 12.4514 26.5521 12.5468L28.1318 13.3366C28.2344 13.3878 28.3496 13.4086 28.4637 13.3965C28.5777 13.3843 28.6859 13.3397 28.7754 13.2679C28.8649 13.1961 28.932 13.1001 28.9686 12.9914C29.0052 12.8827 29.0099 12.7657 28.9821 12.6544L28.5972 11.1145C28.472 10.6137 28.1963 10.1633 27.8072 9.82408L28.2864 7.43953C28.3433 7.15214 28.2935 6.85388 28.1464 6.60054C27.9993 6.34721 27.7649 6.15615 27.4871 6.06313L26.6831 5.79312L26.6756 5.79065C26.6508 5.7827 26.6254 5.77678 26.6006 5.76973V5C26.6006 4.84087 26.5374 4.68826 26.4248 4.57574C26.3123 4.46321 26.1597 4.4 26.0006 4.4C25.8415 4.4 25.6888 4.46321 25.5763 4.57574C25.4638 4.68826 25.4006 4.84087 25.4006 5V5.76943C25.3755 5.77648 25.3501 5.7824 25.3256 5.79035L25.3181 5.79282L24.5156 6.06245C24.2374 6.15538 24.0027 6.34651 23.8554 6.60005C23.708 6.8536 23.6582 7.15216 23.7151 7.43983L24.1011 9.36065C23.8011 9.43324 23.5074 9.53026 23.2232 9.65075L22.4634 8.51075L23.2127 6.26255C23.3574 5.82701 23.3305 5.35265 23.1374 4.93628C22.9443 4.51991 22.5996 4.19293 22.1736 4.02207L20.6014 3.3932V2.6C20.6014 2.44087 20.5381 2.28826 20.4256 2.17574C20.3131 2.06321 20.1605 2 20.0014 2C19.8422 2 19.6896 2.06321 19.5771 2.17574C19.4646 2.28826 19.4014 2.44087 19.4014 2.6V3.39342L17.8278 4.0223C17.4018 4.1932 17.0572 4.52018 16.8641 4.93653C16.671 5.35288 16.644 5.82722 16.7887 6.26277L17.5381 8.51098L16.7782 9.65098C16.494 9.53047 16.2004 9.43344 15.9003 9.36087L16.2865 7.43953C16.3434 7.15209 16.2936 6.85375 16.1465 6.60035C15.9994 6.34695 15.7649 6.15586 15.4871 6.06282L14.6831 5.79282L14.6756 5.79035C14.6507 5.78233 14.6253 5.77648 14.6006 5.76943V5C14.6006 4.84087 14.5373 4.68826 14.4248 4.57574C14.3123 4.46321 14.1597 4.4 14.0006 4.4C13.8414 4.4 13.6888 4.46321 13.5763 4.57574C13.4638 4.68826 13.4006 4.84087 13.4006 5V5.76943C13.3754 5.77648 13.3501 5.7824 13.3256 5.79035L13.3181 5.79282L12.5156 6.06245C12.2374 6.15535 12.0027 6.34648 11.8553 6.60003C11.708 6.85358 11.6581 7.15216 11.7151 7.43983L12.1941 9.82378C11.8051 10.163 11.5294 10.6134 11.4042 11.1142L11.0192 12.6541C10.9914 12.7654 10.996 12.8824 11.0327 12.9911C11.0693 13.0999 11.1363 13.1958 11.2259 13.2676C11.3154 13.3394 11.4236 13.3841 11.5377 13.3962C11.6518 13.4084 11.767 13.3876 11.8696 13.3362L13.4492 12.5465C13.6387 12.4511 13.8452 12.3943 14.0567 12.3792C14.2683 12.3642 14.4807 12.3913 14.6818 12.4589C15.1574 12.6183 15.5668 12.931 15.8457 13.348C16.0108 13.5942 16.1255 13.8707 16.183 14.1615C16.2405 14.4523 16.2398 14.7517 16.1809 15.0422L15.8378 16.758L14.409 18.7913C14.2739 18.9174 14.1001 18.9942 13.9159 19.0092C13.7317 19.0241 13.5478 18.9764 13.3941 18.8738L13.3709 18.8584C13.226 18.7622 13.1147 18.6232 13.0525 18.4608C12.9903 18.2984 12.9803 18.1206 13.0238 17.9523C13.0823 17.729 13.1424 17.4955 13.1963 17.2842C13.2797 16.9538 13.2677 16.6066 13.1617 16.2828C13.0557 15.9589 12.86 15.6718 12.5975 15.4547L2.98153 7.5365C2.87959 7.4525 2.75277 7.40449 2.62075 7.39992C2.48873 7.39535 2.3589 7.43448 2.25138 7.51123C2.14387 7.58798 2.0647 7.69807 2.02613 7.82441C1.98757 7.95076 1.99178 8.08629 2.03811 8.21L3.03711 10.8741C3.59928 12.371 4.54032 13.6964 5.76822 14.7207L6.04362 14.9501L3.27433 14.604C3.16028 14.5897 3.04453 14.6085 2.94085 14.6581C2.83717 14.7078 2.74992 14.7861 2.68949 14.8839C2.62906 14.9817 2.59799 15.0947 2.59997 15.2097C2.60195 15.3246 2.6369 15.4365 2.70066 15.5322C3.54847 16.8092 4.77852 17.7853 6.21477 18.3208L6.63987 18.4801L3.73363 18.803C3.60886 18.8169 3.49158 18.8695 3.39832 18.9536C3.30505 19.0376 3.24049 19.1488 3.21372 19.2714C3.18696 19.3941 3.19934 19.522 3.24912 19.6373C3.2989 19.7525 3.38358 19.8492 3.49123 19.9138L4.5431 20.5452C5.80218 21.3021 7.18475 21.8313 8.62743 22.1085C7.70892 22.7395 6.91923 23.5399 6.30072 24.4669C6.24038 24.5572 6.20572 24.6623 6.20044 24.7708C6.19516 24.8794 6.21945 24.9873 6.27073 25.0831C6.32201 25.1789 6.39834 25.259 6.49158 25.3148C6.58483 25.3706 6.69147 25.4001 6.80014 25.4H7.03677C8.20145 25.4011 9.35128 25.1386 10.4001 24.6322V26C10.4002 26.1187 10.4354 26.2346 10.5013 26.3333C10.5672 26.4319 10.6609 26.5088 10.7705 26.5542C10.8802 26.5996 11.0008 26.6115 11.1171 26.5884C11.2335 26.5652 11.3404 26.5081 11.4243 26.4242L12.8001 25.0485L13.5758 25.8242C13.6386 25.887 13.7145 25.935 13.7981 25.9649C13.8817 25.9948 13.9709 26.0058 14.0592 25.997C14.1475 25.9883 14.2328 25.96 14.3089 25.9143C14.385 25.8686 14.4501 25.8066 14.4993 25.7328L15.0337 24.9312C15.2198 24.6516 15.4873 24.4359 15.8001 24.3133V24.4039C15.7992 24.8812 15.6101 25.3389 15.2738 25.6777L14.8478 26.1037C14.3873 26.5618 14.0223 27.1067 13.7737 27.7068C13.5252 28.307 13.3983 28.9505 13.4001 29.6C13.4002 29.7472 13.4544 29.8892 13.5523 29.999C13.6503 30.1089 13.7852 30.1789 13.9314 30.1957L13.5869 30.8848L12.8379 31.0723L11.3069 29.3602C11.5141 29.0311 11.6091 28.6438 11.5775 28.2563C11.546 27.8687 11.3898 27.5018 11.1322 27.2106C10.8746 26.9193 10.5295 26.7194 10.1487 26.6408C9.76796 26.5622 9.37194 26.6091 9.02006 26.7745C8.66818 26.9399 8.37939 27.2149 8.19697 27.5583C8.01456 27.9017 7.94834 28.2949 8.00826 28.6791C8.06817 29.0633 8.25098 29.4177 8.52929 29.6892C8.8076 29.9607 9.16642 30.1347 9.55195 30.1852C9.62991 30.1954 9.70845 30.2005 9.78708 30.2005C9.98267 30.2 10.1768 30.1673 10.3618 30.1037L11.522 31.4012L11.4545 31.4181C11.3781 31.4372 11.3062 31.4712 11.2429 31.5181C11.1796 31.565 11.1261 31.6239 11.0856 31.6915C11.0037 31.8279 10.9794 31.9913 11.018 32.1457C11.0566 32.3001 11.1549 32.4328 11.2914 32.5147C11.4278 32.5966 11.5912 32.6209 11.7456 32.5823L12.4281 32.4117L12.9547 32.9959C13.0074 33.0545 13.0712 33.102 13.1424 33.1359C13.2135 33.1698 13.2906 33.1893 13.3693 33.1934C13.448 33.1975 13.5267 33.186 13.601 33.1597C13.6752 33.1333 13.7436 33.0926 13.8021 33.0399C13.8606 32.9871 13.9082 32.9234 13.9421 32.8522C13.976 32.7811 13.9955 32.704 13.9996 32.6253C14.0037 32.5466 13.9922 32.4678 13.9659 32.3936C13.9395 32.3193 13.8988 32.251 13.8461 32.1925L13.7466 32.0821L14.1459 31.9823C14.2299 31.9613 14.3083 31.9224 14.3758 31.8682C14.4433 31.8141 14.4983 31.7459 14.537 31.6685L15.2709 30.2H15.8001C15.9115 30.2 16.0208 30.169 16.1155 30.1104C16.2103 30.0518 16.2869 29.9679 16.3367 29.8683C16.5869 29.3649 16.9579 28.9315 17.4167 28.6068L17.5873 28.8628L16.1721 31.3394C15.5356 32.4544 15.2006 33.7161 15.2001 35C15.2001 35.1591 15.2633 35.3117 15.3758 35.4243C15.4884 35.5368 15.641 35.6 15.8001 35.6C15.9592 35.6 16.1118 35.5368 16.2244 35.4243C16.3369 35.3117 16.4001 35.1591 16.4001 35C16.4006 33.9249 16.6811 32.8685 17.2141 31.9348L18.0336 30.5007L17.9617 30.6802C17.3143 32.2898 17.1939 34.0632 17.618 35.7455C17.6368 35.8223 17.6706 35.8945 17.7175 35.9582C17.7643 36.0218 17.8232 36.0756 17.8909 36.1164C17.9586 36.1572 18.0336 36.1843 18.1118 36.196C18.1899 36.2077 18.2696 36.2039 18.3463 36.1847C18.423 36.1655 18.4951 36.1314 18.5585 36.0843C18.622 36.0372 18.6755 35.978 18.716 35.9101C18.7565 35.8423 18.7832 35.7671 18.7945 35.6889C18.8059 35.6107 18.8017 35.531 18.7822 35.4544C18.4198 34.0168 18.5226 32.5013 19.0759 31.1259L19.0834 31.1068L19.3999 31.5816V37.4C19.3999 37.5591 19.4631 37.7117 19.5757 37.8243C19.6882 37.9368 19.8408 38 19.9999 38C20.1591 38 20.3117 37.9368 20.4242 37.8243C20.5367 37.7117 20.5999 37.5591 20.5999 37.4V31.5813L20.9164 31.1065L20.9239 31.1256C21.4772 32.501 21.5801 34.0165 21.2177 35.4541C21.1982 35.5307 21.194 35.6104 21.2053 35.6886C21.2167 35.7668 21.2434 35.842 21.2839 35.9098C21.3244 35.9777 21.3779 36.0369 21.4413 36.084C21.5048 36.1311 21.5769 36.1652 21.6536 36.1844C21.7302 36.2036 21.8099 36.2074 21.8881 36.1957C21.9662 36.184 22.0413 36.1569 22.109 36.1161C22.1766 36.0753 22.2356 36.0215 22.2824 35.9579C22.3292 35.8942 22.363 35.822 22.3818 35.7452C22.8059 34.0629 22.6855 32.2895 22.038 30.6799L21.9662 30.4999L22.7858 31.9343C23.3189 32.8681 23.5996 33.9247 23.6001 35C23.6001 35.1591 23.6633 35.3117 23.7758 35.4243C23.8883 35.5368 24.0409 35.6 24.2001 35.6C24.3592 35.6 24.5118 35.5368 24.6243 35.4243C24.7368 35.3117 24.8001 35.1591 24.8001 35C24.7995 33.7161 24.4645 32.4545 23.828 31.3394L22.4127 28.8628L22.5833 28.6068C23.0421 28.9315 23.4131 29.3649 23.6633 29.8683C23.7131 29.968 23.7897 30.0518 23.8845 30.1104C23.9794 30.169 24.0886 30.2 24.2001 30.2H24.7293L25.4634 31.6683C25.5021 31.7456 25.557 31.8137 25.6245 31.8678C25.6919 31.922 25.7702 31.9609 25.8541 31.9819L27.4061 32.3713C27.5707 32.743 27.8269 33.0668 28.1508 33.3124C28.4748 33.558 28.8558 33.7173 29.2581 33.7753C29.6604 33.8333 30.0709 33.7882 30.4511 33.6442C30.8312 33.5002 31.1685 33.262 31.4314 32.9519C31.6943 32.6419 31.8741 32.2701 31.954 31.8715C32.0339 31.473 32.0112 31.0606 31.8881 30.6732C31.765 30.2858 31.5456 29.936 31.2503 29.6566C30.9551 29.3772 30.5937 29.1774 30.2 29.0759V28.4C30.2 28.2409 30.1368 28.0883 30.0243 27.9757C29.9118 27.8632 29.7592 27.8 29.6 27.8C29.4409 27.8 29.2883 27.8632 29.1758 27.9757C29.0633 28.0883 29 28.2409 29 28.4V29.0759C28.5371 29.1964 28.1207 29.4522 27.8038 29.8105C27.4869 30.1688 27.284 30.6135 27.221 31.0876L26.4135 30.8851L26.0685 30.1958C26.2147 30.179 26.3497 30.109 26.4478 29.9992C26.5458 29.8893 26.6 29.7472 26.6001 29.6C26.6019 28.9505 26.475 28.307 26.2265 27.7069C25.9781 27.1067 25.613 26.5618 25.1526 26.1037L24.7266 25.6777C24.3903 25.3389 24.2012 24.8812 24.2003 24.4039V24.3133C24.513 24.4359 24.7806 24.6516 24.9667 24.9312L25.5011 25.7328C25.5503 25.8066 25.6153 25.8686 25.6914 25.9143C25.7676 25.96 25.8528 25.9883 25.9412 25.997C26.0295 26.0058 26.1187 25.9948 26.2023 25.9649C26.2859 25.935 26.3618 25.887 26.4246 25.8242L27.2003 25.0485L28.576 26.4242C28.6599 26.508 28.7668 26.5651 28.8831 26.5882C28.9995 26.6113 29.1201 26.5994 29.2297 26.554C29.3393 26.5086 29.4329 26.4318 29.4988 26.3332C29.5648 26.2346 29.6 26.1186 29.6 26V24.6319C30.6489 25.1384 31.7987 25.401 32.9634 25.4H33.2C33.3086 25.4 33.4152 25.3705 33.5084 25.3147C33.6015 25.2589 33.6778 25.1788 33.729 25.0831C33.7803 24.9873 33.8046 24.8795 33.7993 24.771C33.7941 24.6625 33.7595 24.5575 33.6992 24.4672C33.0807 23.5402 32.2911 22.7398 31.3726 22.1088C32.8152 21.8316 34.1978 21.3024 35.4568 20.5455L36.5087 19.9144C36.6164 19.8498 36.701 19.7531 36.7508 19.6379C36.8006 19.5226 36.813 19.3947 36.7862 19.272C36.7595 19.1494 36.6949 19.0382 36.6016 18.9542C36.5084 18.8701 36.3911 18.8175 36.2663 18.8036L33.3601 18.4807L33.7851 18.3214C35.2214 17.7859 36.4514 16.8098 37.2993 15.5328C37.3631 15.4371 37.3982 15.3251 37.4002 15.2101C37.4022 15.0951 37.3712 14.982 37.3107 14.8842C37.2502 14.7863 37.1629 14.7079 37.0592 14.6583C36.9554 14.6087 36.8396 14.5899 36.7255 14.6043L33.9562 14.9504L34.2316 14.721C35.4595 13.6967 36.4006 12.3713 36.9628 10.8744ZM9.7081 28.9947C9.55732 28.9747 9.41979 28.8981 9.32333 28.7805C9.22688 28.6628 9.1787 28.513 9.18854 28.3612C9.19839 28.2094 9.26552 28.067 9.37636 27.9628C9.48719 27.8586 9.63347 27.8004 9.78558 27.8C9.90955 27.7998 10.0305 27.838 10.1319 27.9095C10.2332 27.9809 10.3098 28.082 10.3513 28.1989C10.3927 28.3157 10.3969 28.4425 10.3632 28.5618C10.3295 28.6811 10.2597 28.7871 10.1633 28.865C10.1516 28.873 10.1402 28.8817 10.1289 28.8906C10.0066 28.9767 9.85646 29.0138 9.7081 28.9947ZM29.6 32.6C29.3897 32.5997 29.1831 32.5441 29.001 32.4388C28.8188 32.3335 28.6676 32.1822 28.5624 32H30.6377C30.5325 32.1822 30.3812 32.3335 30.1991 32.4388C30.017 32.5441 29.8104 32.5997 29.6 32.6ZM30.6377 30.8H30.2V30.3624C30.3815 30.4677 30.5323 30.6185 30.6377 30.8ZM29 30.3624V30.8H28.5624C28.6678 30.6185 28.8186 30.4678 29 30.3624ZM17.0001 17.6H23.0001V24.5351C23.0002 24.6611 22.9606 24.7839 22.887 24.886C22.8133 24.9882 22.7094 25.0646 22.5898 25.1044L20.0001 25.9676L17.4103 25.1044C17.2908 25.0646 17.1868 24.9882 17.1132 24.886C17.0395 24.7839 17 24.6611 17.0001 24.5351V17.6ZM27.0888 11.4732C26.7586 11.307 26.3986 11.2078 26.0298 11.1816C25.661 11.1554 25.2906 11.2026 24.9402 11.3205C24.2115 11.5647 23.5845 12.0436 23.1572 12.6823C22.9043 13.0594 22.7287 13.483 22.6406 13.9284C22.5524 14.3738 22.5535 14.8323 22.6437 15.2773L22.8682 16.4H20.6919L20.9973 14.2625C21.1504 13.1905 21.6851 12.2097 22.5031 11.5002C23.3211 10.7907 24.3677 10.4 25.4505 10.4H26.145C26.441 10.3999 26.7286 10.4988 26.9619 10.6809C27.1953 10.863 27.3611 11.1179 27.433 11.405L27.5016 11.6793L27.0888 11.4732ZM24.8951 7.20043L25.6948 6.93185C25.8934 6.8696 26.1063 6.8696 26.3049 6.93185L27.1098 7.20357L26.6962 9.26165C26.5153 9.22089 26.3305 9.20014 26.145 9.19978H25.4505C25.3979 9.19978 25.3454 9.20053 25.293 9.20203L24.8951 7.20043ZM18.2735 5.1365L20.0001 4.44583L21.7267 5.1365C21.8687 5.19346 21.9836 5.30244 22.048 5.44122C22.1123 5.58 22.1213 5.7381 22.0731 5.88328L21.3676 8H18.6325L17.9271 5.88365C17.8788 5.73842 17.8877 5.58021 17.9521 5.44135C18.0165 5.30249 18.1314 5.19344 18.2735 5.1365ZM18.521 9.19963H21.4789L22.1697 10.236C21.1332 10.968 20.3698 12.0243 19.9999 13.2381C19.6299 12.0243 18.8666 10.9681 17.8301 10.236L18.521 9.19963ZM13.6949 6.93185C13.8935 6.86949 14.1064 6.86949 14.305 6.93185L15.1099 7.2035L14.7083 9.20195C14.6556 9.2005 14.6027 9.19975 14.5496 9.1997H13.8551C13.67 9.20005 13.4854 9.22075 13.3048 9.26143L12.8951 7.20043L13.6949 6.93185ZM15.0599 11.3205C14.7094 11.2026 14.339 11.1554 13.9702 11.1816C13.6014 11.2078 13.2414 11.3069 12.9112 11.4732L12.4987 11.6796L12.5672 11.4052C12.6391 11.1181 12.8049 10.8632 13.0382 10.681C13.2716 10.4989 13.5591 10.4 13.8551 10.4H14.5496C15.6325 10.4 16.6791 10.7906 17.4971 11.5001C18.3152 12.2097 18.8498 13.1905 19.0029 14.2625L19.3083 16.4H17.132L17.3564 15.2779C17.4467 14.8329 17.4477 14.3744 17.3596 13.929C17.2715 13.4836 17.0959 13.06 16.843 12.6829C16.4158 12.044 15.7886 11.5648 15.0599 11.3205ZM14.0351 24.2655L13.9067 24.458L13.2242 23.7755C13.1116 23.663 12.959 23.5998 12.7999 23.5998C12.6408 23.5998 12.4882 23.663 12.3757 23.7755L11.6 24.5512V23.6C11.6 23.4914 11.5705 23.3848 11.5147 23.2916C11.4589 23.1985 11.3789 23.1222 11.2831 23.0709C11.1873 23.0197 11.0795 22.9954 10.971 23.0006C10.8625 23.0059 10.7575 23.0405 10.6671 23.1007C9.89829 23.6143 9.02909 23.9585 8.11714 24.1108C8.71833 23.4805 9.42397 22.9589 10.2029 22.5691L10.6679 22.3366C10.7812 22.28 10.8737 22.1889 10.9321 22.0765C10.9905 21.9641 11.0118 21.836 10.9929 21.7107C10.9741 21.5855 10.9161 21.4694 10.8272 21.3791C10.7384 21.2888 10.6232 21.2289 10.4982 21.2081L9.13923 20.9816C7.92136 20.7797 6.74478 20.3797 5.65617 19.7975L9.26636 19.3964C9.40041 19.3815 9.52553 19.3219 9.62155 19.2272C9.71756 19.1325 9.77886 19.0082 9.79555 18.8743C9.81225 18.7405 9.78336 18.6049 9.71355 18.4895C9.64375 18.3741 9.53709 18.2856 9.41081 18.2383L6.63634 17.1974C5.90511 16.9245 5.23326 16.5134 4.65748 15.9864L7.92559 16.395C8.05427 16.4111 8.18469 16.385 8.29733 16.3208C8.40997 16.2565 8.49876 16.1575 8.5504 16.0385C8.60204 15.9196 8.61375 15.7871 8.58378 15.6609C8.5538 15.5348 8.48376 15.4217 8.38413 15.3387L6.53667 13.7991C5.46854 12.9081 4.64995 11.7552 4.16098 10.453L3.94895 9.88768L11.8335 16.3809C11.9206 16.4528 11.9855 16.5479 12.0208 16.6552C12.056 16.7625 12.0601 16.8776 12.0326 16.9871C11.9791 17.1962 11.9196 17.4273 11.8618 17.6482C11.755 18.0583 11.7788 18.4915 11.9298 18.8874C12.0809 19.2833 12.3516 19.6222 12.7044 19.857L12.7277 19.8724C13.1207 20.1345 13.5931 20.2506 14.0628 20.2005C14.5325 20.1503 14.9698 19.9371 15.2986 19.5979C15.3205 19.5753 15.3406 19.551 15.3586 19.5252L15.8 18.8971V20.3L15.3707 20.622C14.9636 20.9265 14.4723 21.0976 13.9642 21.1117C13.4561 21.1258 12.956 20.9822 12.5327 20.7007C12.4672 20.657 12.3937 20.6267 12.3164 20.6114C12.2391 20.5961 12.1595 20.5962 12.0822 20.6116C12.005 20.6271 11.9315 20.6576 11.8661 20.7014C11.8006 20.7453 11.7444 20.8016 11.7007 20.8672C11.657 20.9327 11.6266 21.0062 11.6113 21.0835C11.596 21.1608 11.5961 21.2404 11.6116 21.3176C11.627 21.3949 11.6576 21.4684 11.7014 21.5338C11.7452 21.5993 11.8016 21.6555 11.8671 21.6992C12.4472 22.0851 13.1254 22.2975 13.822 22.3115C14.5187 22.3255 15.2048 22.1404 15.8 21.7781V23.065C15.0778 23.2199 14.4445 23.6507 14.0351 24.2655ZM24.3036 26.9521C24.8612 27.5065 25.2285 28.2236 25.3526 29H24.5539C24.1033 28.2536 23.4492 27.6512 22.6684 27.2633C22.5376 27.1979 22.3874 27.1825 22.2461 27.2201C22.1048 27.2576 21.982 27.3455 21.9009 27.4671L20.0001 30.3183L18.0993 27.4669C18.0182 27.3452 17.8954 27.2573 17.7541 27.2198C17.6128 27.1823 17.4626 27.1976 17.3318 27.263C16.5509 27.651 15.8968 28.2535 15.4462 29H14.6475C14.7717 28.2237 15.139 27.5069 15.6964 26.9525L16.1224 26.5265C16.2829 26.3653 16.4244 26.1862 16.544 25.9927C16.6926 26.1004 16.8568 26.1848 17.0308 26.2429L19.8103 27.1695C19.9335 27.2106 20.0667 27.2106 20.1898 27.1695L22.9692 26.2429C23.1434 26.1848 23.3076 26.1004 23.4561 25.9927C23.5757 26.1862 23.7172 26.3653 23.8778 26.5265L24.3036 26.9521ZM33.4634 13.7991L31.616 15.3387C31.5163 15.4217 31.4463 15.5347 31.4163 15.6609C31.3864 15.7871 31.3981 15.9195 31.4497 16.0385C31.5013 16.1574 31.5901 16.2565 31.7027 16.3207C31.8153 16.385 31.9458 16.411 32.0744 16.395L35.3427 15.9864C34.7669 16.5134 34.095 16.9245 33.3637 17.1974L30.5894 18.2379C30.4631 18.2852 30.3564 18.3737 30.2866 18.4891C30.2168 18.6046 30.1879 18.7401 30.2046 18.8739C30.2213 19.0078 30.2826 19.1321 30.3786 19.2268C30.4746 19.3215 30.5998 19.3811 30.7338 19.396L34.344 19.7971C33.2552 20.3793 32.0785 20.7794 30.8605 20.9813L29.5015 21.2078C29.3765 21.2286 29.2614 21.2885 29.1725 21.3788C29.0836 21.4691 29.0256 21.5852 29.0068 21.7104C28.9879 21.8357 29.0093 21.9638 29.0676 22.0762C29.126 22.1886 29.2185 22.2797 29.3318 22.3363L29.7968 22.5688C30.5757 22.9587 31.2813 23.4802 31.8825 24.1105C30.9705 23.9582 30.1014 23.614 29.3325 23.1004C29.2421 23.0403 29.1371 23.0057 29.0287 23.0006C28.9202 22.9954 28.8124 23.0197 28.7167 23.071C28.621 23.1223 28.541 23.1986 28.4852 23.2917C28.4295 23.3849 28.4 23.4914 28.4 23.6V24.5515L27.6243 23.7757C27.5686 23.72 27.5025 23.6758 27.4297 23.6457C27.3569 23.6155 27.2788 23.6 27.2 23.6C27.1213 23.6 27.0432 23.6155 26.9704 23.6457C26.8976 23.6758 26.8315 23.72 26.7758 23.7757L26.0933 24.4582L25.9649 24.2657C25.5555 23.6508 24.9223 23.22 24.2001 23.065V21.7775C24.7952 22.1398 25.4814 22.3249 26.178 22.3109C26.8746 22.2969 27.5528 22.0845 28.1329 21.6986C28.2653 21.6103 28.3572 21.4731 28.3884 21.317C28.4196 21.161 28.3876 20.999 28.2993 20.8665C28.2111 20.7341 28.0738 20.6422 27.9178 20.611C27.7617 20.5798 27.5997 20.6119 27.4673 20.7001C27.044 20.9816 26.544 21.1252 26.0359 21.1111C25.5277 21.097 25.0364 20.9259 24.6294 20.6214L24.2001 20.3V18.8975L24.6414 19.5256C24.6595 19.5514 24.6796 19.5757 24.7014 19.5983C25.0303 19.9375 25.4676 20.1506 25.9373 20.2007C26.4071 20.2508 26.8795 20.1347 27.2725 19.8725L27.2961 19.8568C27.6488 19.6221 27.9195 19.2832 28.0705 18.8873C28.2214 18.4914 28.2452 18.0584 28.1384 17.6484C28.0805 17.4274 28.021 17.1963 27.9676 16.9872C27.9401 16.8776 27.9442 16.7626 27.9794 16.6553C28.0146 16.548 28.0796 16.4529 28.1666 16.381L36.0512 9.88768L35.8393 10.453C35.3502 11.7552 34.5316 12.9081 33.4634 13.7991Z" fill="#343E4D"/>
<path d="M18.3758 23.424C18.4315 23.4797 18.4977 23.5239 18.5705 23.554C18.6433 23.5842 18.7213 23.5997 18.8001 23.5997C18.8789 23.5997 18.9569 23.5842 19.0297 23.554C19.1025 23.5239 19.1686 23.4797 19.2244 23.424C19.4337 23.2149 19.5876 22.9569 19.6718 22.6733C19.7561 22.3896 19.7681 22.0895 19.7068 21.8H20.3259C20.5049 22.0466 20.6009 22.3437 20.6001 22.6485V23C20.6001 23.1591 20.6633 23.3117 20.7758 23.4243C20.8883 23.5368 21.0409 23.6 21.2001 23.6C21.3592 23.6 21.5118 23.5368 21.6243 23.4243C21.7368 23.3117 21.8001 23.1591 21.8001 23V22.6485C21.8016 22.0536 21.6011 21.4758 21.2316 21.0096C21.2716 20.8904 21.3479 20.7868 21.4499 20.7133C21.5519 20.6398 21.6744 20.6002 21.8001 20.6C21.9592 20.6 22.1118 20.5368 22.2243 20.4243C22.3368 20.3117 22.4001 20.1591 22.4001 20C22.4001 19.8409 22.3368 19.6883 22.2243 19.5757C22.1118 19.4632 21.9592 19.4 21.8001 19.4C21.428 19.4005 21.0651 19.5161 20.7614 19.7309C20.4576 19.9457 20.2277 20.2493 20.1033 20.6H19.4001V19.4C19.4001 19.2409 19.3369 19.0883 19.2243 18.9757C19.1118 18.8632 18.9592 18.8 18.8001 18.8C18.641 18.8 18.4883 18.8632 18.3758 18.9757C18.2633 19.0883 18.2001 19.2409 18.2001 19.4V21.2C18.2002 21.2922 18.2216 21.3831 18.2627 21.4657C18.2627 21.4665 18.2627 21.4675 18.2635 21.4683L18.484 21.9094C18.5383 22.0177 18.557 22.1404 18.5376 22.26C18.5182 22.3797 18.4616 22.4901 18.3758 22.5757C18.2634 22.6882 18.2002 22.8408 18.2002 22.9998C18.2002 23.1589 18.2634 23.3115 18.3758 23.424Z" fill="#343E4D"/>
</svg>
