<svg width="14" height="14" viewBox="0 0 14 14" fill="none" xmlns="http://www.w3.org/2000/svg">
<path d="M12.6552 0.775816C12.8895 0.541501 13.2694 0.541501 13.5038 0.775816C13.7381 1.01013 13.7381 1.39003 13.5038 1.62434L1.62436 13.5037C1.39005 13.7381 1.01015 13.7381 0.775834 13.5037C0.541519 13.2694 0.541519 12.8895 0.775834 12.6552L12.6552 0.775816Z" fill="#343E4D"/>
<path d="M13.5038 12.6551C13.7381 12.8894 13.7381 13.2693 13.5038 13.5036C13.2695 13.7379 12.8896 13.7379 12.6553 13.5036L0.775869 1.62424C0.541554 1.38993 0.541554 1.01003 0.775869 0.775711C1.01018 0.541397 1.39008 0.541397 1.6244 0.775712L13.5038 12.6551Z" fill="#343E4D"/>
</svg>
