<svg width="40" height="40" viewBox="0 0 40 40" fill="none" xmlns="http://www.w3.org/2000/svg">
<path d="M39.9338 10.5322C39.8099 10.0713 39.5076 9.67845 39.094 9.44026C38.6801 9.20091 38.188 9.13616 37.7264 9.26009C37.2653 9.38431 36.8725 9.68636 36.6344 10.1L36.3344 10.6221C36.0494 10.4583 35.6853 10.5547 35.5186 10.8383L33.9949 13.4361L33.4729 13.1361C33.3346 13.0561 33.17 13.0344 33.0159 13.076C32.8616 13.1179 32.7303 13.2193 32.651 13.3581C32.4884 13.645 32.5874 14.0094 32.873 14.1741L33.395 14.4741L28.2959 23.312L27.036 26.6783L26.4361 27.8C26.0849 28.4112 26.1224 29.1708 26.5322 29.7442L25.1824 31.4L24.8046 30.4523C24.6341 30.0298 24.2395 29.7404 23.7858 29.7049C23.3318 29.6692 22.8968 29.8936 22.6627 30.2841L22.4468 30.65L22.243 28.25C22.1961 27.6823 21.7564 27.2258 21.1911 27.1573C20.6255 27.089 20.09 27.428 19.9093 27.9682L18.4336 32.3961C18.3305 32.7093 18.4992 33.0468 18.8114 33.1523C18.87 33.1795 18.933 33.1959 18.9974 33.2C19.2552 33.2009 19.4849 33.0366 19.5675 32.7922L21.037 28.3643L21.2471 30.8C21.2904 31.3198 21.6639 31.7519 22.1718 31.8697C22.6797 31.9874 23.2052 31.7636 23.4726 31.3162L23.6947 30.95L24.0667 31.8922C24.2246 32.2892 24.5816 32.5725 25.0043 32.6355C25.427 32.6985 25.8512 32.5318 26.1183 32.1981L27.5161 30.4282C27.6708 30.4687 27.8301 30.4889 27.99 30.4883C28.633 30.4933 29.23 30.1546 29.5557 29.6L30.1556 28.5981L32.4412 25.8201L37.5943 16.8741L38.1162 17.1741C38.2554 17.2537 38.3567 17.3853 38.398 17.5403C38.4396 17.6941 38.418 17.8581 38.3383 17.9961L35.9387 22.1542C35.8482 22.2908 35.8174 22.4583 35.8537 22.6183C35.8901 22.778 35.99 22.9159 36.1306 23C36.2688 23.0803 36.4334 23.102 36.5875 23.0604C36.7419 23.0185 36.8731 22.9171 36.9525 22.7783L39.3521 18.6201C39.5914 18.2062 39.6561 17.714 39.5319 17.2523C39.4077 16.7911 39.1057 16.3983 38.6921 16.1601L38.1701 15.8601L39.6699 13.262C39.8336 12.977 39.7373 12.6131 39.454 12.4461L39.754 11.9241C39.9997 11.5036 40.0647 11.0015 39.9338 10.5322ZM37.6722 10.7C37.7516 10.5612 37.8834 10.4595 38.0383 10.4182C38.1924 10.3801 38.3553 10.4015 38.4941 10.4783C38.6332 10.5576 38.7346 10.6895 38.7762 10.8442C38.8143 10.9983 38.7929 11.1612 38.7161 11.3L38.4162 11.8221L37.3722 11.2221L37.6722 10.7ZM29.4956 27.4523L28.3079 26.762L29.1597 24.4822L31.0493 25.5741L29.4956 27.4523ZM27.696 29.1861C27.4426 29.0094 27.3647 28.6696 27.5161 28.4L27.816 27.8783L28.8597 28.4783L28.5598 28.9942C28.4757 29.1401 28.3345 29.2438 28.1702 29.2804C28.0059 29.3167 27.8339 29.2827 27.696 29.1861ZM31.7333 24.5903L29.6576 23.3903L34.4568 15.0741L36.5324 16.2741L31.7333 24.5903ZM37.1323 15.2361L35.0567 14.0361L36.2565 11.9601L38.3321 13.1601L37.1323 15.2361Z" fill="#5A8F52"/>
<path d="M13.4663 28.886L11.3429 31.0042L10.071 29.7321C9.837 29.4995 9.45913 29.4995 9.22509 29.7321C9.11144 29.8449 9.04758 29.9981 9.04758 30.1581C9.04758 30.3181 9.11144 30.4716 9.22509 30.5841L10.4969 31.8561C10.7219 32.0794 11.026 32.2045 11.3429 32.2042C11.6616 32.2059 11.9683 32.0808 12.1947 31.8561L14.3122 29.7321C14.5161 29.4939 14.5023 29.1392 14.2809 28.9177C14.0591 28.6959 13.7044 28.6821 13.4663 28.886Z" fill="#5A8F52"/>
<path d="M6.39955 30.5C6.39955 33.3169 8.68256 35.6 11.4987 35.6C14.3148 35.6 16.5978 33.3169 16.5978 30.5C16.5978 30.1687 16.3292 29.9 15.9979 29.9C15.6666 29.9 15.398 30.1687 15.398 30.5C15.398 32.6539 13.6522 34.4 11.4987 34.4C9.34514 34.4 7.59934 32.6539 7.59934 30.5C7.59934 28.3461 9.34514 26.6 11.4987 26.6C12.3429 26.5977 13.1645 26.8716 13.8382 27.3802C14.1033 27.5791 14.4794 27.5252 14.678 27.2601C14.8769 26.9949 14.8233 26.6191 14.5582 26.4201C13.0131 25.2612 10.9456 25.0748 9.21831 25.9385C7.49067 26.8025 6.39955 28.5685 6.39955 30.5Z" fill="#5A8F52"/>
<path d="M25.5963 6.8C25.9276 6.8 26.1962 6.53164 26.1962 6.2C26.1962 5.86865 25.9276 5.6 25.5963 5.6H9.99895C9.66766 5.6 9.39905 5.86865 9.39905 6.2V8.6C9.39905 8.93164 9.66766 9.2 9.99895 9.2H25.5963C25.9276 9.2 26.1962 8.93164 26.1962 8.6C26.1962 8.26865 25.9276 8 25.5963 8H10.5988V6.8H25.5963Z" fill="#5A8F52"/>
<path d="M11.7987 10.4C11.4674 10.4 11.1988 10.6686 11.1988 11C11.1988 11.3316 11.4674 11.6 11.7987 11.6H23.7966C24.1279 11.6 24.3965 11.3316 24.3965 11C24.3965 10.6686 24.1279 10.4 23.7966 10.4H11.7987Z" fill="#5A8F52"/>
<path d="M27.396 14.6H14.1983C13.867 14.6 13.5984 14.8687 13.5984 15.2C13.5984 15.5317 13.867 15.8 14.1983 15.8H27.396C27.7273 15.8 27.9959 15.5317 27.9959 15.2C27.9959 14.8687 27.7273 14.6 27.396 14.6Z" fill="#5A8F52"/>
<path d="M21.397 18.8C21.397 18.4686 21.1284 18.2 20.7971 18.2H8.79917C8.46788 18.2 8.19928 18.4686 8.19928 18.8C8.19928 19.1316 8.46788 19.4 8.79917 19.4H20.7971C21.1284 19.4 21.397 19.1316 21.397 18.8Z" fill="#5A8F52"/>
<path d="M27.396 18.2H23.1967C22.8654 18.2 22.5968 18.4686 22.5968 18.8C22.5968 19.1316 22.8654 19.4 23.1967 19.4H27.396C27.7273 19.4 27.9959 19.1316 27.9959 18.8C27.9959 18.4686 27.7273 18.2 27.396 18.2Z" fill="#5A8F52"/>
<path d="M14.7982 22.4C15.1294 22.4 15.398 22.1316 15.398 21.8C15.398 21.4686 15.1294 21.2 14.7982 21.2H8.79917C8.46788 21.2 8.19928 21.4686 8.19928 21.8C8.19928 22.1316 8.46788 22.4 8.79917 22.4H14.7982Z" fill="#5A8F52"/>
<path d="M17.1977 22.4H21.397C21.7283 22.4 21.9969 22.1316 21.9969 21.8C21.9969 21.4686 21.7283 21.2 21.397 21.2H17.1977C16.8664 21.2 16.5978 21.4686 16.5978 21.8C16.5978 22.1316 16.8664 22.4 17.1977 22.4Z" fill="#5A8F52"/>
<path d="M30.9954 29.6C30.6641 29.6 30.3955 29.8687 30.3955 30.2V36.2C30.3955 36.5316 30.1269 36.8 29.7956 36.8H5.79969C5.4684 36.8 5.1998 36.5316 5.1998 36.2V3.8C5.1998 3.46865 5.4684 3.2 5.79969 3.2H29.7956C30.1269 3.2 30.3955 3.46865 30.3955 3.8V15.0682C30.3955 15.3995 30.6641 15.6682 30.9954 15.6682C31.3267 15.6682 31.5953 15.3995 31.5953 15.0682V3.8C31.5953 2.80596 30.7895 2 29.7956 2H5.79969C4.80582 2 4 2.80596 4 3.8V36.2C4 37.1943 4.80582 38 5.79969 38H29.7956C30.7895 38 31.5953 37.1943 31.5953 36.2V30.2C31.5953 29.8687 31.3267 29.6 30.9954 29.6Z" fill="#5A8F52"/>
</svg>
