<svg width="36" height="44" viewBox="0 0 36 44" fill="none" xmlns="http://www.w3.org/2000/svg">
<path d="M36 0H0V36C0 39.6 3 40.5 4.5 40.5H15C17 40.5 18 42.5 18 44C18 42.5 19 40.5 21 40.5H31.5C35.1 40.5 36 37.5 36 36V0Z" fill="#4462AE"/>
<rect width="36" height="27" fill="#E3E3E3"/>
<rect x="18" y="4.30508" width="11.4975" height="11.4975" transform="rotate(45 18 4.30508)" fill="#5A8F52"/>
<rect x="26.1299" y="7" width="7.68629" height="7.68629" transform="rotate(45 26.1299 7)" fill="#5A8F52"/>
<rect x="10.4351" y="7" width="7.68629" height="7.68629" transform="rotate(45 10.4351 7)" fill="#5A8F52"/>
<path d="M9 27C9 29.4853 6.98528 31.5 4.5 31.5C2.01472 31.5 0 29.4853 0 27C0 27 2.01472 27 4.5 27C6.98528 27 9 27 9 27Z" fill="#E3E3E3"/>
<path d="M18 27C18 29.4853 15.9853 31.5 13.5 31.5C11.0147 31.5 9 29.4853 9 27C9 27 11.0147 27 13.5 27H18Z" fill="#E3E3E3"/>
<path d="M27 27C27 29.4853 24.9853 31.5 22.5 31.5C20.0147 31.5 18 29.4853 18 27H22.5H27Z" fill="#E3E3E3"/>
<path d="M36 27C36 29.4853 33.9853 31.5 31.5 31.5C29.0147 31.5 27 29.4853 27 27C27 27 29.0147 27 31.5 27C33.9853 27 36 27 36 27Z" fill="#E3E3E3"/>
</svg>
