<svg width="40" height="40" viewBox="0 0 40 40" fill="none" xmlns="http://www.w3.org/2000/svg">
<path d="M24.6134 25.4211H21.9765C21.6125 25.4211 21.3173 25.7157 21.3173 26.079V28.7106C21.3173 29.0739 21.6125 29.3684 21.9765 29.3684H24.6134C24.9775 29.3684 25.2727 29.0739 25.2727 28.7106V26.079C25.2727 25.7157 24.9775 25.4211 24.6134 25.4211ZM23.9542 28.0527H22.6357V26.7369H23.9542V28.0527Z" fill="#343E4D"/>
<path d="M22.6358 21.4738C22.6358 20.0205 21.4551 18.8422 19.9988 18.8422C18.5423 18.8422 17.3619 20.0205 17.3619 21.4738C17.3619 22.9271 18.5423 24.1053 19.9988 24.1053C21.4551 24.1053 22.6358 22.9271 22.6358 21.4738ZM19.9988 22.7896C19.2707 22.7896 18.6804 22.2004 18.6804 21.4738C18.6804 20.7472 19.2707 20.158 19.9988 20.158C20.727 20.158 21.3173 20.7472 21.3173 21.4738C21.3173 22.2004 20.727 22.7896 19.9988 22.7896Z" fill="#343E4D"/>
<path d="M39.2198 14.3575L28.949 7.1207C28.7211 6.95977 28.4162 6.95977 28.1883 7.1207L20.548 12.5023L20.379 12.3838C20.1511 12.2229 19.8463 12.2229 19.6184 12.3838L19.4497 12.5023L11.809 7.1207C11.5811 6.95977 11.2763 6.95977 11.0484 7.1207L0.776952 14.3575C-0.0374262 14.9331 -0.243757 16.0517 0.311501 16.8792C0.593797 17.2907 1.0306 17.5711 1.52277 17.6566C2.01526 17.742 2.52127 17.6254 2.9262 17.3331L4.17738 16.4172V25.4211C4.17738 26.1477 4.76773 26.7369 5.49584 26.7369H12.7473V30.6842C12.7473 31.4109 13.3377 32 14.0658 32H25.9319C26.66 32 27.2504 31.4109 27.2504 30.6842V26.7369H34.5019C35.23 26.7369 35.8203 26.1477 35.8203 25.4211V16.4172L37.0728 17.3344C37.3853 17.5637 37.7629 17.6871 38.1505 17.6871C38.7714 17.6874 39.3514 17.3784 39.6965 16.8634C40.2431 16.0369 40.0319 14.9267 39.2198 14.3575ZM29.8873 20.6929C30.0585 20.8127 30.1409 21.0237 30.0955 21.2277C30.0502 21.4317 29.8863 21.5881 29.6803 21.6244C29.5412 21.6476 29.399 21.6145 29.2847 21.5323L20.389 15.0192C20.1572 14.8496 19.8418 14.8496 19.6097 15.0192L10.7143 21.5323C10.6 21.6145 10.4574 21.6476 10.3187 21.6244C10.1127 21.5885 9.94885 21.432 9.90314 21.2284C9.85775 21.0247 9.93951 20.8136 10.1104 20.6935L19.9989 13.7266L29.8873 20.6929ZM27.2504 16.2107C27.2504 15.484 27.8407 14.8949 28.5688 14.8949C29.2969 14.8949 29.8873 15.484 29.8873 16.2107C29.8873 16.9373 29.2969 17.5265 28.5688 17.5265C27.8407 17.5265 27.2504 16.9373 27.2504 16.2107ZM32.5242 21.4738V22.7896H31.2057V21.9691C31.2923 21.814 31.3554 21.6473 31.3934 21.4738H32.5242ZM11.4289 17.5265C10.7008 17.5265 10.1104 16.9373 10.1104 16.2107C10.1104 15.484 10.7008 14.8949 11.4289 14.8949C12.157 14.8949 12.7473 15.484 12.7473 16.2107C12.7473 16.9373 12.157 17.5265 11.4289 17.5265ZM2.15142 16.2685C2.06193 16.3334 1.9541 16.3684 1.84369 16.3687C1.67084 16.3684 1.50893 16.2852 1.4085 16.1448C1.25303 15.9106 1.31129 15.5958 1.54047 15.4323L11.4289 8.46346L18.3064 13.308L17.4672 13.9004L11.819 9.75997C11.5869 9.59003 11.2708 9.59003 11.0384 9.75997L2.15142 16.2685ZM5.49584 15.4516L11.4289 11.1056L16.3316 14.6977L14.0565 16.3009C14.0565 16.2698 14.0658 16.2402 14.0658 16.2094C14.071 14.858 13.0499 13.7224 11.7031 13.5817C10.3564 13.4413 9.12159 14.3414 8.8467 15.6649C8.57181 16.9881 9.34595 18.3038 10.6377 18.7092L9.34499 19.6199C9.14123 19.7635 8.96902 19.947 8.83801 20.1587H7.47352C7.10947 20.1587 6.8143 20.4532 6.8143 20.8165V25.4218H5.49584V15.4516ZM8.13275 25.4211V21.4738H8.604C8.65196 21.7089 8.74531 21.9322 8.87889 22.1317C9.29026 22.7526 10.0396 23.06 10.7697 22.9081V25.4211H8.13275ZM12.0881 25.4211V22.158L12.7473 21.6758V25.4211H12.0881ZM16.7027 30.6842V26.7369H19.3396V30.6842H16.7027ZM25.9319 30.6842H20.6581V26.079C20.6581 25.7157 20.3629 25.4211 19.9989 25.4211H16.0435C15.6794 25.4211 15.3843 25.7157 15.3843 26.079V30.6842H14.0658V20.7105L19.9989 16.3687L25.9319 20.7105V30.6842ZM27.2504 25.4211V21.6758L27.9096 22.158V25.4211H27.2504ZM34.5019 25.4211H29.228V22.9094C29.4447 22.9572 29.6687 22.9617 29.8873 22.9219V23.4475C29.8873 23.8108 30.1824 24.1053 30.5465 24.1053H33.1834C33.5475 24.1053 33.8426 23.8108 33.8426 23.4475V20.8159C33.8426 20.4526 33.5475 20.158 33.1834 20.158H31.1568C31.0261 19.9457 30.8533 19.7622 30.6492 19.6187L29.3597 18.7108C30.646 18.3032 31.415 16.9906 31.1397 15.672C30.8645 14.3533 29.6346 13.4564 28.292 13.5952C26.9497 13.734 25.9303 14.8637 25.9319 16.2107C25.9319 16.2415 25.9396 16.2704 25.9409 16.3016L23.6661 14.6977L28.5688 11.1056L34.5019 15.4516V25.4211ZM38.5969 16.1378C38.5155 16.2573 38.389 16.3385 38.2461 16.3626C38.1077 16.3877 37.9647 16.3552 37.8508 16.2727L28.9577 9.75932C28.7256 9.58939 28.4095 9.58939 28.1771 9.75932L22.5295 13.8988L21.6904 13.3067L28.5688 8.46346L38.4572 15.4298C38.689 15.5884 38.7508 15.9029 38.5969 16.1378Z" fill="#343E4D"/>
</svg>
