<svg width="14" height="14" viewBox="0 0 14 14" fill="none" xmlns="http://www.w3.org/2000/svg">
<path d="M1.68182 8.62808L7.37652 2.93359C8.23522 2.08132 9.62133 2.08389 10.4768 2.93937C11.3323 3.79485 11.3349 5.18096 10.4826 6.03966L5.82354 10.7001C5.63298 10.8908 5.32388 10.8908 5.13322 10.7001C4.94266 10.5094 4.94266 10.2005 5.13322 10.0098L9.79228 5.34934C10.2688 4.87283 10.2688 4.10041 9.79228 3.62391C9.31577 3.1474 8.54335 3.1474 8.06685 3.62391L2.37096 9.31829C1.51313 10.1765 1.51345 11.5675 2.3715 12.4252C3.22966 13.283 4.62059 13.2827 5.47843 12.4246L11.518 6.38477C12.7246 5.14045 12.7093 3.15812 11.4837 1.93245C10.2581 0.706891 8.27573 0.691565 7.03142 1.89816L1.85459 7.07509C1.73123 7.19834 1.55149 7.24647 1.38312 7.20134C1.21464 7.15622 1.08303 7.02472 1.03791 6.85624C0.992785 6.68776 1.04101 6.50813 1.16427 6.38477L6.34109 1.20794C7.96235 -0.40592 10.584 -0.402919 12.2015 1.21469C13.8191 2.8322 13.8221 5.45384 12.2082 7.07509L6.16747 13.1149C4.92155 14.3116 2.94704 14.2917 1.72566 13.0699C0.504168 11.8482 0.484769 9.87368 1.68182 8.62808Z" fill="#343E4D"/>
</svg>
