<svg width="30" height="30" viewBox="0 0 30 30" fill="none" xmlns="http://www.w3.org/2000/svg">
<path d="M14.9994 0C6.72892 0 0 6.729 0 15C0 23.271 6.72892 30 14.9994 30C23.2705 30 30 23.271 30 15C30 6.729 23.2705 0 14.9994 0ZM14.9994 28.0327C7.8135 28.0327 1.96725 22.1862 1.96725 15C1.96725 7.81372 7.81342 1.96732 14.9994 1.96732C22.1862 1.96732 28.0326 7.8138 28.0326 15C28.0327 22.1862 22.1862 28.0327 14.9994 28.0327Z" fill="#343E4D"/>
<path d="M14.722 9.4478C15.4462 9.4478 16.0336 8.8604 16.0336 8.13613C16.0336 7.41185 15.4462 6.82445 14.722 6.82445C13.9972 6.82445 13.4104 7.41185 13.4104 8.13613C13.4104 8.8604 13.9972 9.4478 14.722 9.4478Z" fill="#343E4D"/>
<path d="M16.8067 20.9689H15.984V11.5923C15.984 11.0491 15.5437 10.6086 15.0006 10.6086H13.1935C12.6504 10.6086 12.21 11.0491 12.21 11.5923C12.21 12.1355 12.6504 12.5759 13.1935 12.5759H14.0168V20.9689H13.1935C12.6504 20.9689 12.21 21.4093 12.21 21.9526C12.21 22.4957 12.6504 22.9362 13.1935 22.9362H16.8067C17.3502 22.9362 17.7905 22.4957 17.7905 21.9526C17.7905 21.4093 17.3502 20.9689 16.8067 20.9689Z" fill="#343E4D"/>
</svg>
