<svg width="40" height="40" viewBox="0 0 40 40" fill="none" xmlns="http://www.w3.org/2000/svg">
<path d="M33.3333 8H6.66669C5.19594 8 4 9.19594 4 10.6667V29.3334C4 30.8041 5.19594 32 6.66669 32H33.3334C34.8041 32 36 30.8041 36 29.3333V10.6667C36 9.19594 34.8041 8 33.3333 8ZM6.66669 9.33331H33.3334C33.4316 9.33331 33.5182 9.36913 33.6104 9.38938C31.3017 11.5023 23.6464 18.5056 20.9675 20.9193C20.7579 21.1081 20.42 21.3333 20.0001 21.3333C19.5801 21.3333 19.2423 21.1081 19.0319 20.9186C16.3532 18.5053 8.69756 11.5017 6.38925 9.3895C6.48163 9.36925 6.56837 9.33331 6.66669 9.33331ZM5.33331 29.3333V10.6667C5.33331 10.5361 5.37269 10.4176 5.40794 10.2982C7.17494 11.9154 12.5164 16.8019 15.9799 19.9515C12.5277 22.9169 7.18481 27.9824 5.40375 29.6808C5.37231 29.5674 5.33331 29.4566 5.33331 29.3333ZM33.3333 30.6667H6.66669C6.56019 30.6667 6.4655 30.6296 6.36606 30.6058C8.2065 28.8513 13.5834 23.7567 16.9749 20.8552C17.4171 21.2563 17.8209 21.622 18.1393 21.9089C18.6888 22.405 19.332 22.6667 20 22.6667C20.668 22.6667 21.3112 22.4049 21.86 21.9095C22.1785 21.6225 22.5827 21.2565 23.0251 20.8552C26.4168 23.7564 31.7929 28.8506 33.6339 30.6058C33.5345 30.6296 33.4399 30.6667 33.3333 30.6667ZM34.6667 29.3333C34.6667 29.4565 34.6277 29.5674 34.5963 29.6808C32.8146 27.9816 27.4723 22.9166 24.0201 19.9516C27.4837 16.802 32.8244 11.9159 34.5921 10.2981C34.6273 10.4174 34.6667 10.536 34.6667 10.6666V29.3333Z" fill="#5A8F52"/>
</svg>
