<svg width="17" height="17" viewBox="0 0 17 17" fill="none" xmlns="http://www.w3.org/2000/svg">
<path d="M13.1563 10.9681C11.5227 12.9135 9.55624 14.4452 7.31175 15.529C6.4572 15.9324 5.31436 16.4111 4.04111 16.4932C3.96218 16.4966 3.88668 16.5 3.80774 16.5C2.95319 16.5 2.2668 16.206 1.70739 15.6008C1.70396 15.5974 1.6971 15.5906 1.69367 15.5837C1.49461 15.3444 1.26811 15.129 1.0313 14.8999C0.870001 14.7461 0.705268 14.5854 0.547399 14.4213C-0.183605 13.6622 -0.183605 12.6981 0.554262 11.963L2.61686 9.90821C2.96692 9.54579 3.38561 9.35433 3.8249 9.35433C4.26419 9.35433 4.68632 9.54579 5.04667 9.90479L6.27531 11.1288C6.38856 11.0638 6.50525 11.0057 6.61507 10.951C6.75235 10.8826 6.87933 10.8177 6.99258 10.7459C8.1114 10.0381 9.12725 9.115 10.0985 7.92862C10.5893 7.30978 10.9187 6.7901 11.1487 6.26015C10.8261 5.96954 10.5241 5.66525 10.2323 5.3678C10.1294 5.26181 10.023 5.15582 9.9166 5.04983C9.54595 4.68058 9.34689 4.25321 9.34689 3.819C9.34689 3.38479 9.54252 2.95742 9.9166 2.58817L10.9393 1.56931C11.0594 1.44965 11.1727 1.3334 11.2894 1.21374C11.5159 0.981247 11.7527 0.741919 11.9861 0.526523C12.3395 0.181206 12.7548 0 13.1941 0C13.63 0 14.0487 0.181206 14.4159 0.529942L15.6994 1.80864C16.1662 2.27362 16.4304 2.83775 16.4853 3.49078C16.5505 4.30792 16.3995 5.17634 16.0083 6.22596C15.4077 7.84998 14.5017 9.35775 13.1563 10.9681ZM15.6479 3.56258C15.6068 3.10785 15.4317 2.72835 15.1023 2.40012L13.8256 1.12826C13.6265 0.936801 13.4069 0.83765 13.1941 0.83765C12.9848 0.83765 12.772 0.936801 12.5764 1.1351C12.3464 1.34708 12.1302 1.56931 11.8968 1.80522C11.7801 1.92489 11.66 2.04455 11.5399 2.16763L10.5172 3.18649C10.3044 3.39847 10.1946 3.61386 10.1946 3.82584C10.1946 4.03782 10.3044 4.25321 10.5172 4.46519C10.6236 4.57118 10.73 4.68058 10.8364 4.78657C11.1555 5.10796 11.4541 5.41225 11.7836 5.70286C11.7904 5.7097 11.7939 5.71312 11.8007 5.71995C12.0856 6.00373 12.041 6.27383 11.9723 6.47897C11.9689 6.48922 11.9655 6.49606 11.962 6.50632C11.6978 7.13883 11.3306 7.74057 10.7574 8.45856C9.72784 9.72358 8.64335 10.7048 7.44903 11.4604C7.30146 11.5562 7.14359 11.6314 6.99602 11.7066C6.85874 11.775 6.73176 11.8399 6.6185 11.9117C6.60477 11.9186 6.59448 11.9254 6.58075 11.9322C6.4675 11.9904 6.35767 12.0177 6.24785 12.0177C5.9733 12.0177 5.79484 11.8433 5.73649 11.7852L4.45295 10.5065C4.2539 10.3082 4.03768 10.2022 3.8249 10.2022C3.56407 10.2022 3.35129 10.3629 3.21745 10.5065L1.14799 12.5648C0.736155 12.975 0.739587 13.4195 1.15828 13.8537C1.30243 14.0076 1.45343 14.1546 1.61473 14.3084C1.85497 14.5409 2.1055 14.7803 2.33201 15.0504C2.72668 15.4743 3.19686 15.6726 3.80431 15.6726C3.86265 15.6726 3.92443 15.6692 3.98277 15.6658C5.10845 15.594 6.15519 15.1563 6.9411 14.7837C9.07577 13.7546 10.9496 12.2947 12.5043 10.4416C13.7844 8.90644 14.6458 7.47731 15.2155 5.94561C15.569 5.00539 15.7028 4.24979 15.6479 3.56258Z" fill="white"/>
</svg>
