<svg width="28" height="27" viewBox="0 0 28 27" fill="none" xmlns="http://www.w3.org/2000/svg">
<path opacity="0.25" d="M6.75479 26.992C5.52279 26.992 4.40279 26.5627 3.39479 25.704C2.42412 24.808 1.65879 23.6507 1.09879 22.232C0.538789 20.8133 0.258789 19.3013 0.258789 17.696C0.258789 15.0827 0.725456 12.6373 1.65879 10.36C2.59212 8.04533 3.74946 6.08533 5.13079 4.48C6.51212 2.83733 7.83746 1.66133 9.10679 0.951996H9.16279L11.3468 2.912V3.808C10.4135 4.66666 9.53612 5.89866 8.71479 7.50399C7.93079 9.10933 7.53879 11.088 7.53879 13.44C7.53879 14.5973 7.70679 15.5493 8.04279 16.296C8.37879 17.0427 8.86412 17.8267 9.49879 18.648C10.0588 19.3947 10.4695 20.0667 10.7308 20.664C10.9921 21.224 11.1228 21.9333 11.1228 22.792C11.1228 23.9867 10.6935 24.9947 9.83479 25.816C9.01346 26.6 7.98679 26.992 6.75479 26.992ZM22.8828 26.992C21.6508 26.992 20.5308 26.5627 19.5228 25.704C18.5521 24.808 17.7868 23.6507 17.2268 22.232C16.6668 20.8133 16.3868 19.3013 16.3868 17.696C16.3868 15.0827 16.8535 12.6373 17.7868 10.36C18.7201 8.04533 19.8775 6.08533 21.2588 4.48C22.6401 2.83733 23.9655 1.66133 25.2348 0.951996H25.2908L27.4748 2.912V3.808C26.5415 4.66666 25.6641 5.91733 24.8428 7.56C24.0215 9.16533 23.6108 11.1253 23.6108 13.44C23.6108 14.5973 23.7788 15.5493 24.1148 16.296C24.4508 17.0427 24.9361 17.8267 25.5708 18.648C26.1308 19.3947 26.5415 20.0667 26.8028 20.664C27.0641 21.224 27.1948 21.9333 27.1948 22.792C27.1948 23.9867 26.7841 24.9947 25.9628 25.816C25.1415 26.6 24.1148 26.992 22.8828 26.992Z" fill="#343E4D"/>
</svg>
