<svg width="162" height="18" viewBox="0 0 162 18" fill="none" xmlns="http://www.w3.org/2000/svg">
<path d="M109.846 14C109.67 13.584 109.654 13.184 109.654 12.64V10.912C109.654 9.744 109.366 8.896 108.486 8.528C109.27 8.16 109.638 7.408 109.638 6.256V5.376C109.638 3.648 108.854 2.8 107.03 2.8H104.374V14H106.134V9.44H106.742C107.542 9.44 107.894 9.824 107.894 10.864V12.624C107.894 13.536 107.958 13.712 108.054 14H109.846ZM106.982 4.4C107.606 4.4 107.878 4.752 107.878 5.552V6.656C107.878 7.552 107.478 7.84 106.822 7.84H106.134V4.4H106.982ZM112.428 5.376C112.428 4.576 112.78 4.272 113.34 4.272C113.9 4.272 114.252 4.576 114.252 5.376V11.424C114.252 12.224 113.9 12.528 113.34 12.528C112.78 12.528 112.428 12.224 112.428 11.424V5.376ZM110.668 11.312C110.668 13.104 111.612 14.128 113.34 14.128C115.068 14.128 116.012 13.104 116.012 11.312V5.488C116.012 3.696 115.068 2.672 113.34 2.672C111.612 2.672 110.668 3.696 110.668 5.488V11.312ZM121.7 14H124.036L125.284 2.8H123.748L122.836 11.696L121.956 2.8H120.26L119.412 11.632L118.468 2.8H116.756L118.004 14H120.42L121.06 8.032L121.7 14ZM128.432 5.488C128.432 8.688 131.872 9.12 131.872 11.424C131.872 12.224 131.52 12.512 130.96 12.512C130.4 12.512 130.048 12.224 130.048 11.424V10.624H128.384V11.312C128.384 13.104 129.28 14.128 131.008 14.128C132.736 14.128 133.632 13.104 133.632 11.312C133.632 8.112 130.192 7.68 130.192 5.376C130.192 4.576 130.512 4.272 131.072 4.272C131.632 4.272 131.952 4.576 131.952 5.376V5.84H133.616V5.488C133.616 3.696 132.736 2.672 131.024 2.672C129.312 2.672 128.432 3.696 128.432 5.488ZM134.128 4.4H135.968V14H137.728V4.4H139.568V2.8H134.128V4.4ZM140.263 2.8V11.328C140.263 13.12 141.159 14.144 142.887 14.144C144.615 14.144 145.511 13.12 145.511 11.328V2.8H143.847V11.44C143.847 12.24 143.495 12.528 142.935 12.528C142.375 12.528 142.023 12.24 142.023 11.44V2.8H140.263ZM146.718 14H149.502C151.262 14 152.126 13.024 152.126 11.232V5.568C152.126 3.776 151.262 2.8 149.502 2.8H146.718V14ZM149.47 4.4C150.03 4.4 150.366 4.688 150.366 5.488V11.312C150.366 12.112 150.03 12.4 149.47 12.4H148.478V4.4H149.47ZM153.249 14H155.009V2.8H153.249V14ZM157.912 5.376C157.912 4.576 158.264 4.272 158.824 4.272C159.384 4.272 159.736 4.576 159.736 5.376V11.424C159.736 12.224 159.384 12.528 158.824 12.528C158.264 12.528 157.912 12.224 157.912 11.424V5.376ZM156.152 11.312C156.152 13.104 157.096 14.128 158.824 14.128C160.552 14.128 161.496 13.104 161.496 11.312V5.488C161.496 3.696 160.552 2.672 158.824 2.672C157.096 2.672 156.152 3.696 156.152 5.488V11.312Z" fill="white"/>
<path d="M3.758 2.704C2.046 2.704 1.342 3.92 1.342 5.536V11.264C1.342 12.88 2.046 14.096 3.758 14.096C5.47 14.096 6.174 12.88 6.174 11.264V9.984H5.47V11.312C5.47 12.512 5.006 13.408 3.774 13.408C2.542 13.408 2.078 12.512 2.078 11.312V5.488C2.078 4.288 2.542 3.376 3.774 3.376C5.006 3.376 5.47 4.288 5.47 5.488V6.464H6.174V5.536C6.174 3.92 5.47 2.704 3.758 2.704ZM11.9344 11.52L12.4944 14H13.2304L10.7344 2.784H9.66238L7.21438 14H7.88638L8.44638 11.52H11.9344ZM10.1744 3.632L11.8224 10.88H8.55838L10.1744 3.632ZM18.0391 0.719999C18.0071 1.36 17.5111 1.616 16.9191 1.616C16.3431 1.616 15.8471 1.36 15.8311 0.719999H15.3191C15.3351 1.584 16.0071 2.08 16.9191 2.08C17.8471 2.08 18.5191 1.584 18.5351 0.719999H18.0391ZM18.6631 4.096V14H19.3351V2.8H18.4551L16.4231 8.4L15.0151 12.384V2.8H14.3431V14H15.1431L18.6631 4.096ZM23.4408 14V3.472H25.7288V2.8H20.4168V3.472H22.7048V14H23.4408ZM29.2963 2.8V14H30.0323V9.392H31.4243C33.2003 9.392 34.0163 8.512 34.0163 6.736V5.52C34.0163 3.888 33.3443 2.8 31.6163 2.8H29.2963ZM30.0323 8.72V3.472H31.6163C32.8643 3.472 33.2803 4.256 33.2803 5.472V6.784C33.2803 8.144 32.7203 8.72 31.4243 8.72H30.0323ZM39.6844 11.52L40.2444 14H40.9804L38.4844 2.784H37.4124L34.9644 14H35.6364L36.1964 11.52H39.6844ZM37.9244 3.632L39.5724 10.88H36.3084L37.9244 3.632ZM44.4771 2.704C42.7651 2.704 42.0771 3.904 42.0771 5.52V6.096H42.7491V5.488C42.7491 4.272 43.2291 3.376 44.4611 3.376C45.6931 3.376 46.1571 4.272 46.1571 5.552V5.968C46.1571 7.008 45.4691 7.824 44.4771 7.824H43.8051V8.496H44.4291C45.5171 8.496 46.1571 9.248 46.1571 10.384V11.248C46.1571 12.528 45.6931 13.424 44.4611 13.424C43.2291 13.424 42.7651 12.512 42.7651 11.312V10.336H42.0611V11.264C42.0611 12.896 42.7651 14.096 44.4771 14.096C46.1891 14.096 46.8931 12.896 46.8931 11.264V10.4C46.8931 9.312 46.3971 8.416 45.3731 8.128C46.3491 7.808 46.8931 6.928 46.8931 5.824V5.536C46.8931 3.904 46.1891 2.704 44.4771 2.704ZM48.14 2.8V14H48.876V9.392H50.268C52.044 9.392 52.86 8.512 52.86 6.736V5.52C52.86 3.888 52.188 2.8 50.46 2.8H48.14ZM48.876 8.72V3.472H50.46C51.708 3.472 52.124 4.256 52.124 5.472V6.784C52.124 8.144 51.564 8.72 50.268 8.72H48.876ZM58.5281 11.52L59.0881 14H59.8241L57.3281 2.784H56.2561L53.8081 14H54.4801L55.0401 11.52H58.5281ZM56.7681 3.632L58.4161 10.88H55.1521L56.7681 3.632ZM61.6729 7.568V3.472H65.4649V2.8H60.9369V14H63.4009C65.1449 14 65.8809 13.024 65.8809 11.328V10.064C65.8809 8.272 65.0009 7.568 63.2729 7.568H61.6729ZM61.6729 13.328V8.256H63.2729C64.5209 8.256 65.1449 8.64 65.1449 10.016V11.376C65.1449 12.64 64.6489 13.328 63.4009 13.328H61.6729ZM67.0764 11.264C67.0764 12.896 67.8284 14.096 69.5244 14.096C71.2524 14.096 72.0044 12.896 72.0044 11.264V5.536C72.0044 3.904 71.2524 2.704 69.5244 2.704C67.8284 2.704 67.0764 3.904 67.0764 5.536V11.264ZM67.8124 5.488C67.8124 4.272 68.2924 3.376 69.5244 3.376C70.7724 3.376 71.2684 4.272 71.2684 5.488V11.312C71.2684 12.528 70.7724 13.424 69.5244 13.424C68.2924 13.424 67.8124 12.528 67.8124 11.312V5.488ZM76.0501 14V3.472H78.3381V2.8H73.0261V3.472H75.3141V14H76.0501ZM83.9813 11.52L84.5413 14H85.2773L82.7812 2.784H81.7093L79.2613 14H79.9333L80.4933 11.52H83.9813ZM82.2213 3.632L83.8693 10.88H80.6053L82.2213 3.632ZM90.614 8.736V14H91.366V2.8H90.614V8.064H87.126V2.8H86.39V14H87.126V8.736H90.614Z" fill="white"/>
</svg>
