<svg width="14" height="14" viewBox="0 0 14 14" fill="none" xmlns="http://www.w3.org/2000/svg">
<path d="M13.3408 12.5767L10.2155 9.45143C10.9902 8.50694 11.4571 7.29714 11.4571 5.97857C11.4571 2.95408 9.00306 0.5 5.97857 0.5C2.95143 0.5 0.5 2.95408 0.5 5.97857C0.5 9.00306 2.95143 11.4571 5.97857 11.4571C7.29714 11.4571 8.50429 10.9929 9.44878 10.2182L12.5741 13.3408C12.7863 13.5531 13.1286 13.5531 13.3408 13.3408C13.5531 13.1312 13.5531 12.7863 13.3408 12.5767ZM5.97857 10.3667C3.55633 10.3667 1.58776 8.39816 1.58776 5.97857C1.58776 3.55898 3.55633 1.58776 5.97857 1.58776C8.39816 1.58776 10.3694 3.55898 10.3694 5.97857C10.3694 8.39816 8.39816 10.3667 5.97857 10.3667Z" fill="white"/>
</svg>
