<svg width="40" height="40" viewBox="0 0 40 40" fill="none" xmlns="http://www.w3.org/2000/svg">
<path d="M30.1889 12.6875H20C19.6093 12.6875 19.2925 13.0023 19.2925 13.3906C19.2925 13.7789 19.6093 14.0937 20 14.0937H30.1889C30.5797 14.0937 30.8964 13.7789 30.8964 13.3906C30.8964 13.0023 30.5797 12.6875 30.1889 12.6875Z" fill="#343E4D"/>
<path d="M27.713 16.2686C27.5814 16.1378 27.3988 16.0626 27.2128 16.0626C27.0267 16.0626 26.8441 16.1378 26.7125 16.2686C26.5809 16.3994 26.5052 16.5808 26.5052 16.7657C26.5052 16.9506 26.5809 17.132 26.7125 17.2628C26.8441 17.3936 27.0267 17.4688 27.2128 17.4688C27.3988 17.4688 27.5814 17.3936 27.713 17.2628C27.8446 17.132 27.9203 16.9506 27.9203 16.7657C27.9203 16.5808 27.8446 16.3994 27.713 16.2686Z" fill="#343E4D"/>
<path d="M20.4996 5.22953C20.368 5.09875 20.1854 5.02352 19.9993 5.02352C19.8132 5.02352 19.6307 5.09875 19.4991 5.22953C19.3675 5.36031 19.2918 5.54172 19.2918 5.72664C19.2918 5.91156 19.3675 6.09297 19.4991 6.22375C19.6307 6.35453 19.8132 6.42976 19.9993 6.42976C20.1854 6.42976 20.368 6.35453 20.4996 6.22375C20.6312 6.09297 20.7069 5.91156 20.7069 5.72664C20.7069 5.54172 20.6312 5.36031 20.4996 5.22953Z" fill="#343E4D"/>
<path d="M24.2366 16.0625H20C19.6093 16.0625 19.2925 16.3773 19.2925 16.7656C19.2925 17.1539 19.6093 17.4687 20 17.4687H24.2366C24.6274 17.4687 24.9442 17.1539 24.9442 16.7656C24.9442 16.3773 24.6274 16.0625 24.2366 16.0625Z" fill="#343E4D"/>
<path d="M30.1889 20.2812H20C19.6093 20.2812 19.2925 20.596 19.2925 20.9843C19.2925 21.3727 19.6093 21.6875 20 21.6875H30.1889C30.5797 21.6875 30.8964 21.3727 30.8964 20.9843C30.8964 20.596 30.5797 20.2812 30.1889 20.2812Z" fill="#343E4D"/>
<path d="M27.713 23.8623C27.5814 23.7315 27.3988 23.6563 27.2128 23.6563C27.0267 23.6563 26.8441 23.7315 26.7125 23.8623C26.5809 23.9931 26.5052 24.1745 26.5052 24.3594C26.5052 24.5443 26.5809 24.7257 26.7125 24.8565C26.8441 24.9873 27.0267 25.0625 27.2128 25.0625C27.3988 25.0625 27.5814 24.9873 27.713 24.8565C27.8446 24.7257 27.9203 24.5443 27.9203 24.3594C27.9203 24.1745 27.8446 23.9931 27.713 23.8623Z" fill="#343E4D"/>
<path d="M24.2366 23.6562H20C19.6093 23.6562 19.2925 23.971 19.2925 24.3593C19.2925 24.7477 19.6093 25.0625 20 25.0625H24.2366C24.6274 25.0625 24.9442 24.7477 24.9442 24.3593C24.9442 23.971 24.6274 23.6562 24.2366 23.6562Z" fill="#343E4D"/>
<path d="M30.1889 27.8749H20C19.6093 27.8749 19.2925 28.1897 19.2925 28.5781C19.2925 28.9664 19.6093 29.2812 20 29.2812H30.1889C30.5797 29.2812 30.8964 28.9664 30.8964 28.5781C30.8964 28.1897 30.5797 27.8749 30.1889 27.8749Z" fill="#343E4D"/>
<path d="M27.713 31.456C27.5814 31.3253 27.3988 31.25 27.2128 31.25C27.0267 31.25 26.8441 31.3253 26.7125 31.456C26.5809 31.5868 26.5052 31.7682 26.5052 31.9532C26.5052 32.1381 26.5809 32.3195 26.7125 32.4503C26.8441 32.581 27.0267 32.6563 27.2128 32.6563C27.3988 32.6563 27.5814 32.581 27.713 32.4503C27.8446 32.3195 27.9203 32.1381 27.9203 31.9532C27.9203 31.7682 27.8446 31.5868 27.713 31.456Z" fill="#343E4D"/>
<path d="M24.2366 31.2499H20C19.6093 31.2499 19.2925 31.5647 19.2925 31.9531C19.2925 32.3414 19.6093 32.6562 20 32.6562H24.2366C24.6274 32.6562 24.9442 32.3414 24.9442 31.9531C24.9442 31.5647 24.6274 31.2499 24.2366 31.2499Z" fill="#343E4D"/>
<path d="M31.5502 4.74225H26.146C25.3648 4.0025 24.3088 3.54687 23.1471 3.54687H22.5273C22.0534 2.61467 21.0799 2 20 2C18.92 2 17.9466 2.61467 17.4727 3.54687H16.8514C15.6896 3.54687 14.6337 4.0025 13.8525 4.74225H8.44987C6.54762 4.74225 5 6.28019 5 8.17054V34.5717C5 36.4621 6.54762 38 8.44987 38H31.5501C33.4524 38 35 36.4621 35 34.5717V8.17054C35.0001 6.28019 33.4524 4.74225 31.5502 4.74225ZM16.8514 4.95312H17.9542C18.2725 4.95312 18.5515 4.74197 18.6362 4.43717C18.805 3.83016 19.3658 3.40625 20 3.40625C20.6343 3.40625 21.1951 3.83016 21.3638 4.43717C21.4485 4.74197 21.7276 4.95312 22.0458 4.95312H23.1471C24.6828 4.95312 25.9469 6.13085 26.0731 7.62506H13.9254C14.0516 6.13085 15.3158 4.95312 16.8514 4.95312ZM33.585 34.5718C33.585 35.6867 32.6722 36.5938 31.5502 36.5938H8.44987C7.32791 36.5938 6.4151 35.6867 6.4151 34.5718V8.17054C6.4151 7.0556 7.32791 6.1485 8.44987 6.1485H12.8612C12.6294 6.67669 12.5 7.25901 12.5 7.87115V8.32818C12.5 8.71652 12.8168 9.03131 13.2076 9.03131H26.791C27.1818 9.03131 27.4986 8.71652 27.4986 8.32818V7.87115C27.4986 7.25908 27.3692 6.67669 27.1374 6.1485H31.5502C32.6722 6.1485 33.585 7.0556 33.585 8.17054V34.5718Z" fill="#343E4D"/>
<path d="M15.5007 12.5185C15.2244 12.2439 14.7763 12.2439 14.5 12.5184L11.4744 15.5252L10.5424 14.5989C10.2661 14.3244 9.81805 14.3244 9.54168 14.5989C9.26538 14.8734 9.26538 15.3187 9.54168 15.5933L10.9741 17.0168C11.1123 17.1541 11.2934 17.2227 11.4744 17.2227C11.6555 17.2227 11.8366 17.1541 11.9747 17.0168L15.5007 13.5129C15.777 13.2383 15.777 12.7931 15.5007 12.5185Z" fill="#343E4D"/>
<path d="M13.7736 27.8749H10.3774C9.98659 27.8749 9.66982 28.1897 9.66982 28.5781V31.9531C9.66982 32.3414 9.98659 32.6562 10.3774 32.6562H13.7736C14.1644 32.6562 14.4812 32.3414 14.4812 31.9531V28.5781C14.4812 28.1897 14.1644 27.8749 13.7736 27.8749ZM13.0661 31.2499H11.0849V29.2812H13.0661V31.2499Z" fill="#343E4D"/>
<path d="M13.7736 20.2812H10.3774C9.98659 20.2812 9.66982 20.596 9.66982 20.9843V24.3593C9.66982 24.7477 9.98659 25.0625 10.3774 25.0625H13.7736C14.1644 25.0625 14.4812 24.7477 14.4812 24.3593V20.9843C14.4812 20.596 14.1644 20.2812 13.7736 20.2812ZM13.0661 23.6562H11.0849V21.6875H13.0661V23.6562Z" fill="#343E4D"/>
</svg>
