<svg width="40" height="40" viewBox="0 0 40 40" fill="none" xmlns="http://www.w3.org/2000/svg">
<path d="M38 17.0968H36.6953L34.7506 18.12C34.5317 17.9992 34.3041 17.8969 34.0585 17.8353L31.6123 17.2232V16.9451C32.6945 16.1898 33.3548 14.942 33.3548 13.6129V12.5979C33.3548 10.3422 31.5874 8.45457 29.4151 8.3888C29.3048 8.38596 29.1962 8.38993 29.087 8.39532L29.7213 6.91053L26.6465 3.83663L24.834 5.01635C24.1453 4.6285 23.417 4.32655 22.6605 4.11476L22.2129 2H17.7877L17.34 4.11533C16.5836 4.32712 15.8547 4.62906 15.1666 5.01692L13.3541 3.8372L10.2818 6.9094L10.9053 8.39532C10.8815 8.39419 10.8588 8.38993 10.835 8.38937C9.72303 8.35704 8.67572 8.76276 7.88017 9.53506C7.08348 10.3068 6.64516 11.3425 6.64516 12.4516V13.6129C6.64516 14.942 7.30491 16.1892 8.3871 16.9445V17.2232L6.79146 17.6221L3.89929 15.9355H2V27.9671L7.71232 29.871H8.82485L8.96377 29.3845L10.7148 30.4355C10.7434 31.3875 11.5069 32.1536 12.4581 32.187C12.4916 33.1343 13.2528 33.8955 14.2001 33.929C14.2335 34.8762 14.9948 35.6374 15.942 35.6709C15.9766 36.6402 16.7704 37.4194 17.7477 37.4194C18.1106 37.4194 18.4665 37.3062 18.7656 37.1047L19.2799 37.5588C19.6022 37.8426 20.0173 38 20.4482 38H20.5557C21.5219 38 22.3081 37.2189 22.3203 36.2558C23.2761 36.2436 24.0501 35.4696 24.0622 34.5139C25.0186 34.5017 25.7931 33.7265 25.8042 32.7702C26.7693 32.7475 27.5484 31.9591 27.5484 30.9886C27.5484 30.9302 27.5456 30.8726 27.5396 30.8145L38 25.5847V17.0968ZM32.1935 12.5979V13.6129C32.1935 14.6435 31.6367 15.6063 30.7402 16.1254L30.4499 16.2933L30.4522 18.1308L33.3531 18.8554L26.9677 22.2163V20.6521C26.9677 19.8716 26.6525 19.1568 26.1362 18.6286L28.129 18.1308V16.2919L27.8393 16.1243C26.9434 15.6063 26.3871 14.6435 26.3871 13.6129V12.4516C26.3871 11.6597 26.7001 10.9192 27.2691 10.3678C27.8376 9.8166 28.5917 9.51947 29.3802 9.55009C30.9313 9.59659 32.1935 10.964 32.1935 12.5979ZM20.8755 21.7598L18.247 20.9197C17.0491 20.5358 15.7526 20.4786 14.5264 20.7502L14.1935 20.8239V20.6521C14.1935 19.8514 14.7365 19.1562 15.5128 18.9618L18.8387 18.1308V16.2919L18.549 16.1243C17.653 15.6063 17.0968 14.6435 17.0968 13.6129V12.4516C17.0968 11.6597 17.4098 10.9192 17.9788 10.3678C18.5473 9.8166 19.3062 9.51947 20.0899 9.55009C21.641 9.59659 22.9032 10.964 22.9032 12.5979V13.6129C22.9032 14.6435 22.3464 15.6063 21.4499 16.1254L21.1596 16.2933L21.1619 18.1308L24.4872 18.9618C25.2635 19.1562 25.8065 19.8514 25.8065 20.6521V22.8278L25.663 22.9032H25.3072L21.7374 21.8831C21.4562 21.8035 21.1664 21.7709 20.8755 21.7598ZM14.3237 10.6904C15.4141 8.57762 17.6088 7.22581 20 7.22581C22.3685 7.22581 24.5539 8.55948 25.6525 10.6436C25.3761 11.1979 25.2258 11.8117 25.2258 12.4516V13.6129C25.2258 14.942 25.8856 16.1892 26.9677 16.9445V17.2232L24.6452 17.8047L22.322 17.2232V16.9451C23.4042 16.1898 24.0645 14.942 24.0645 13.6129V12.5979C24.0645 10.3422 22.2971 8.45457 20.1247 8.3888C19.0134 8.35619 17.9655 8.76219 17.1699 9.5345C16.3738 10.3068 15.9355 11.3425 15.9355 12.4516V13.6129C15.9355 14.942 16.5952 16.1892 17.6774 16.9445V17.2232L15.3548 17.8047L13.0317 17.2232V16.9451C14.1139 16.1898 14.7742 14.942 14.7742 13.6129V12.5979C14.7742 11.9146 14.6098 11.2659 14.3237 10.6904ZM11.6532 7.17874L13.5083 5.32368L15.1411 6.38631L15.4535 6.19465C16.2363 5.71494 17.0823 5.36366 17.9677 5.15187L18.325 5.06625L18.729 3.16129H21.2716L21.6745 5.06568L22.0317 5.15102C22.9171 5.36309 23.7631 5.71437 24.5459 6.19408L24.8584 6.38574L26.4911 5.32312L28.3439 7.17647L27.6853 8.71853C27.2371 8.91132 26.8214 9.18265 26.4597 9.53336C26.4359 9.55661 26.4154 9.58156 26.3922 9.60537C25.0242 7.43079 22.6058 6.06452 20 6.06452C17.3755 6.06452 14.9503 7.44355 13.5857 9.64025C13.2205 9.25806 12.7862 8.94846 12.3048 8.73214L11.6532 7.17874ZM9.54839 18.1308V16.2919L9.25863 16.1243C8.36271 15.6063 7.80645 14.6435 7.80645 13.6129V12.4516C7.80645 11.6597 8.11946 10.9192 8.68848 10.3678C9.25693 9.8166 10.0128 9.51947 10.7996 9.55009C12.3507 9.59659 13.6129 10.964 13.6129 12.5979V13.6129C13.6129 14.6435 13.0561 15.6063 12.1596 16.1254L11.8693 16.2933L11.8715 18.1308L13.8638 18.6286C13.3475 19.1568 13.0323 19.8716 13.0323 20.6521V21.0822L11.2211 21.4848L11.2682 21.3203L11.2903 20.2472L8.22804 18.4608L9.54839 18.1308ZM3.16129 17.0968H3.58458L7.76052 19.5325L5.65341 27.9606L3.16129 27.1296V17.0968ZM7.90058 28.7097L6.75772 28.3289L8.80472 20.1418L10.129 20.9141V21.0799L7.94934 28.7097H7.90058ZM11.871 30.3813C11.871 30.2101 11.9401 30.0422 12.0615 29.9209L13.0822 28.9002C13.2035 28.7789 13.3713 28.7097 13.5426 28.7097C13.9015 28.7097 14.1935 29.0017 14.1935 29.3606C14.1935 29.5319 14.1244 29.6997 14.003 29.8211L12.9824 30.8417C12.861 30.9631 12.6932 31.0323 12.5219 31.0323C12.163 31.0323 11.871 30.7402 11.871 30.3813ZM13.6129 32.1232C13.6129 31.952 13.6821 31.7842 13.8034 31.6628L14.8241 30.6421C14.9454 30.5208 15.1133 30.4516 15.2845 30.4516C15.6435 30.4516 15.9355 30.7436 15.9355 31.1026C15.9355 31.2738 15.8663 31.4417 15.745 31.563L14.7243 32.5837C14.6029 32.705 14.4351 32.7742 14.2639 32.7742C13.9049 32.7742 13.6129 32.4822 13.6129 32.1232ZM15.3548 33.8652C15.3548 33.6939 15.424 33.5261 15.5454 33.4047L16.566 32.3841C16.6874 32.2627 16.8552 32.1935 17.0265 32.1935C17.3854 32.1935 17.6774 32.4856 17.6774 32.8445C17.6774 33.0158 17.6082 33.1836 17.4869 33.3049L16.4662 34.3256C16.3449 34.447 16.177 34.5161 16.0058 34.5161C15.6469 34.5161 15.3548 34.2241 15.3548 33.8652ZM17.7477 36.2581C17.3888 36.2581 17.0968 35.966 17.0968 35.6071C17.0968 35.4359 17.166 35.268 17.2873 35.1467L18.308 34.126C18.4293 34.0047 18.5972 33.9355 18.7684 33.9355C19.1273 33.9355 19.4194 34.2275 19.4194 34.5864C19.4194 34.7577 19.3502 34.9255 19.2288 35.0469L18.2082 36.0675C18.0868 36.1889 17.919 36.2581 17.7477 36.2581ZM20.5557 36.8387H20.4482C20.3002 36.8387 20.1585 36.7848 20.0482 36.687L19.6138 36.304L20.0499 35.8679C20.2056 35.7123 20.3263 35.5272 20.4156 35.3284L20.9436 35.7679C21.0816 35.883 21.1613 36.0525 21.1613 36.2331C21.1613 36.5671 20.8897 36.8387 20.5557 36.8387ZM25.7628 31.6129H25.6624C25.5167 31.6129 25.3744 31.5613 25.2629 31.4677L22.1142 28.8438L21.3702 29.7363L24.428 32.284C24.5655 32.3991 24.6452 32.5686 24.6452 32.7492C24.6452 33.0832 24.3736 33.3548 24.0396 33.3548H23.9128C23.7719 33.3548 23.6341 33.3049 23.5255 33.2142L20.3717 30.5863L19.6277 31.4788L22.6855 34.0268C22.8236 34.141 22.9032 34.3106 22.9032 34.4912C22.9032 34.8252 22.6316 35.0968 22.2976 35.0968C22.0748 35.0968 21.8576 35.0177 21.6866 34.8756L20.3907 33.7954C20.1052 33.2119 19.5186 32.8051 18.8316 32.7807C18.7982 31.8335 18.0369 31.0722 17.0897 31.0388C17.0562 30.0915 16.295 29.3303 15.3478 29.2968C15.3137 28.3275 14.5199 27.5484 13.5426 27.5484C13.0654 27.5484 12.5985 27.7417 12.2611 28.0791L11.2404 29.0998C11.1795 29.1608 11.129 29.2299 11.0777 29.2985L9.29407 28.2283L10.8577 22.7558L14.7776 21.8843C15.8059 21.6543 16.8901 21.7042 17.8929 22.0252L18.7483 22.2988L15.8484 23.7487C15.1859 24.0807 14.7742 24.7472 14.7742 25.4883V25.6032C14.7742 26.6757 15.6469 27.5484 16.7194 27.5484C17.0718 27.5484 17.4186 27.4526 17.7199 27.2708L19.8821 25.9743C20.3164 25.714 20.8993 25.771 21.2744 26.1084L26.1804 30.5236C26.3117 30.6427 26.3871 30.8117 26.3871 30.9886C26.3871 31.3331 26.1073 31.6129 25.7628 31.6129ZM36.8387 24.8669L27.0565 29.7584C27.0247 29.7247 26.9916 29.6926 26.9567 29.6614L22.0515 25.2462C21.6217 24.8584 21.066 24.6452 20.4871 24.6452C20.0638 24.6452 19.6482 24.7603 19.2841 24.9786L17.1212 26.2757C16.9998 26.3488 16.8612 26.3871 16.7194 26.3871C16.2868 26.3871 15.9355 26.0358 15.9355 25.6032V25.4883C15.9355 25.1892 16.1016 24.921 16.3687 24.7875L19.6076 23.168C20.1619 22.8905 20.8199 22.8284 21.4173 23.0002L25.0662 24.0424L25.9499 24.0645L36.8387 18.3335V24.8669Z" fill="#343E4D"/>
</svg>
